<svg width="579" height="579" viewBox="0 0 579 579" fill="none" xmlns="http://www.w3.org/2000/svg">
<mask id="mask0_481_1057" style="mask-type:alpha" maskUnits="userSpaceOnUse" x="0" y="0" width="579" height="579">
<circle cx="289.163" cy="289.163" r="289.163" transform="matrix(1 0 0 -1 0.0610352 578.933)" fill="#113C51"/>
</mask>
<g mask="url(#mask0_481_1057)">
<path d="M319.044 193.803C319.044 193.803 324.145 134.418 379.529 111.549C450.565 77.4079 523.403 144.274 522.58 144.96" stroke="#026D85" stroke-miterlimit="10"/>
<path d="M309.173 78.1448C309.173 78.1448 283.08 96.8051 285.013 140.655C286.946 184.504 322.215 205.352 322.215 205.352C322.215 205.352 268.053 213.383 250.052 151.55" stroke="#026D85" stroke-miterlimit="10"/>
<path d="M255.85 221.266C305.33 244.86 324.237 204.954 324.237 204.954C324.237 204.954 345.999 242.347 305.235 258.984" stroke="#026D85" stroke-miterlimit="10"/>
<path d="M360.408 558.605C360.408 558.605 423.585 513.248 434.222 426.35C434.222 426.35 452.081 312.52 363.101 237.61" stroke="#026D85" stroke-miterlimit="10"/>
<path d="M15.4695 529.747C15.4695 529.747 125.358 565.866 226.753 494.283C328.149 422.7 339.698 317.754 334.78 260.463" stroke="#026D85" stroke-miterlimit="10"/>
<path d="M-184.331 320.735C-184.331 320.735 -85.0046 439.459 71.3316 418.104C227.668 396.749 280.78 273.138 289.715 254.318" stroke="#026D85" stroke-miterlimit="10"/>
<path d="M-184.756 319.549C-184.756 319.549 -128.677 485.065 81.4143 557.264C287.051 627.924 439.515 532.061 489.155 476.454C491.08 474.289 493.026 472.166 494.98 470.064C511.197 452.675 591.745 356.949 551.983 210.276C551.983 210.276 513.288 38.6978 337.673 69.4178C316.501 73.1272 296.784 82.618 280.987 97.211C261.93 114.84 243.901 143.55 247.909 187.92C247.909 187.92 249.009 259.219 320.213 260.814C320.213 260.814 367.7 260.522 368.387 218.319C368.523 210.885 366.044 203.586 361.339 197.801C355.111 190.117 344.295 182.194 324.706 190.35" stroke="#026D85" stroke-miterlimit="10"/>
<path d="M402.67 540.435L254.964 220.69" stroke="#026D85" stroke-miterlimit="10"/>
<path d="M282.949 283.309L535.397 166.691" stroke="#026D85" stroke-miterlimit="10"/>
<path d="M382.73 237.215L309.38 78.4318" stroke="#026D85" stroke-miterlimit="10"/>
<path d="M254.84 222.676L353.947 176.893" stroke="#026D85" stroke-miterlimit="10"/>
<path d="M346.827 253.801L319.062 193.697" stroke="#026D85" stroke-miterlimit="10"/>
<path d="M330.151 218.828L366.483 202.044" stroke="#026D85" stroke-miterlimit="10"/>
<path d="M549.689 373.308C552.886 350.408 551.167 300.75 507.831 254.145C453.661 195.888 387.559 197.457 366.65 201.685" stroke="#026D85"/>
<path opacity="0.9" d="M260.32 225.733C256.799 227.359 252.588 225.739 250.914 222.115C249.239 218.49 250.736 214.233 254.257 212.607C257.778 210.981 261.989 212.6 263.663 216.225C265.338 219.85 263.841 224.106 260.32 225.733Z" fill="#026D85"/>
<path opacity="0.9" d="M288.579 286.906C285.058 288.533 280.847 286.913 279.173 283.288C277.498 279.664 278.995 275.407 282.516 273.781C286.037 272.154 290.248 273.774 291.922 277.399C293.597 281.023 292.1 285.28 288.579 286.906Z" fill="#026D85"/>
<path opacity="0.8" d="M312.164 85.5877C308.574 87.2464 304.279 85.5945 302.572 81.8981C300.864 78.2018 302.39 73.8607 305.981 72.2021C309.572 70.5434 313.866 72.1953 315.574 75.8917C317.281 79.588 315.755 83.9291 312.164 85.5877Z" fill="#026D85"/>
<path opacity="0.8" d="M536.087 174.937C532.497 176.596 528.202 174.944 526.494 171.248C524.787 167.551 526.313 163.21 529.904 161.552C533.494 159.893 537.789 161.545 539.497 165.241C541.204 168.938 539.678 173.279 536.087 174.937Z" fill="#026D85"/>
<path opacity="0.9" d="M372.285 207.453C368.764 209.08 364.552 207.46 362.878 203.835C361.204 200.211 362.7 195.954 366.221 194.327C369.742 192.701 373.953 194.321 375.628 197.945C377.302 201.57 375.805 205.827 372.285 207.453Z" fill="#026D85"/>
<path opacity="0.9" d="M397.754 529.164C394.234 530.79 390.022 529.17 388.348 525.546C386.673 521.921 388.17 517.664 391.691 516.038C395.212 514.411 399.423 516.031 401.098 519.656C402.772 523.28 401.275 527.537 397.754 529.164Z" fill="#026D85"/>
<path opacity="0.9" d="M363.945 563.863C360.424 565.49 356.212 563.87 354.538 560.245C352.864 556.621 354.36 552.364 357.881 550.738C361.402 549.111 365.614 550.731 367.288 554.356C368.962 557.98 367.465 562.237 363.945 563.863Z" fill="#026D85"/>
<path opacity="0.9" d="M324.796 372.571C321.275 374.197 317.064 372.577 315.39 368.953C313.715 365.328 315.212 361.071 318.733 359.445C322.254 357.818 326.465 359.438 328.139 363.063C329.814 366.687 328.317 370.944 324.796 372.571Z" fill="#026D85"/>
<path opacity="0.9" d="M544.505 374.081C546.069 377.468 549.99 378.96 553.248 377.455C556.506 375.95 557.912 371.997 556.347 368.611C554.783 365.224 550.862 363.732 547.604 365.237C544.346 366.742 542.941 370.695 544.505 374.081Z" fill="#E3F3FB" stroke="#026D85"/>
<path opacity="0.25" d="M279.126 229.958C290.295 254.137 318.327 264.941 341.722 254.134C365.116 243.327 375.062 214.979 363.893 190.8C352.724 166.622 324.691 155.818 301.297 166.625C277.902 177.432 267.956 205.78 279.126 229.958Z" fill="#E3F3FB" stroke="#026D85"/>
<path d="M327.713 217.885C322.699 220.201 316.702 217.895 314.317 212.733C311.933 207.572 314.064 201.51 319.078 199.194C324.092 196.878 330.089 199.184 332.474 204.346C334.858 209.507 332.726 215.569 327.713 217.885Z" fill="#F2AD24" fill-opacity="0.9"/>
</g>
</svg>
