<?xml version="1.0" encoding="UTF-8"?>
<svg xmlns="http://www.w3.org/2000/svg" width="249" height="44" viewBox="0 0 249 44" fill="none">
  <path d="M89.0628 39.6019V12.9863H76.575V13.6605L82.3908 16.9875V34.8387C81.5642 35.9379 80.4867 36.8319 79.232 37.4475C77.9921 38.063 76.6045 38.3855 75.217 38.3855C71.7481 38.3855 69.4011 36.3922 69.4011 31.4384V12.9863H56.9133V13.6605L62.7291 16.9875V33.1972C62.7291 40.5106 66.877 43.8375 72.3681 43.8375C76.5159 43.8375 80.1472 40.877 82.7008 36.4655V43.4858H93.5797V42.797L89.0628 39.6019ZM199.254 42.4892L204.76 39.1329V4.9401L198.767 1.58384V0.880346H211.446V39.1183L216.952 42.4599V43.1634H181.57V42.4599L187.076 39.1183V16.7383L181.083 13.7045V13.045H193.763V39.1183L199.269 42.4599L199.254 42.4892ZM190.146 8.3843C191.253 8.34033 192.301 7.88599 193.084 7.10921C193.851 6.33244 194.294 5.29185 194.294 4.19264C194.294 3.09343 193.866 2.06749 193.084 1.27606C192.316 0.499286 191.253 0.0302889 190.146 0.000976562C189.039 0.044945 187.991 0.499286 187.209 1.27606C186.441 2.05284 185.998 3.09343 185.998 4.19264C185.998 5.29185 186.427 6.31778 187.209 7.10921C187.976 7.88599 189.039 8.35499 190.146 8.3843ZM244.157 32.6989C240.614 36.8026 238.061 37.8432 234.311 37.8432C226.267 37.8432 222.99 32.098 222.99 26.2502V25.4587H244.629C244.319 18.5117 240.363 12.5906 232.392 12.5906C222.443 12.5906 217.056 20.5636 217.056 28.8003C217.056 38.0923 223.92 43.8375 231.713 43.8375C239.507 43.8375 243.699 37.0664 244.777 33.2411C244.585 33.0506 244.172 32.7282 244.172 32.7282V32.6989H244.157ZM223.506 23.4801C224.436 18.585 227.58 14.2907 232.23 14.2907C235.994 14.2907 237.662 18.1013 237.662 21.9706C237.662 22.4835 237.662 22.9818 237.603 23.4948H223.506V23.4801ZM173.525 34.6042L144.756 0.895002H134.999L134.733 1.32003L140.726 8.03255V38.6346L134.423 42.4892V43.1927H150.07V42.4892L142.896 38.6346V10.4948L171.297 43.178H175.681V5.43841L181.983 1.58384V0.880346H166.337V1.58384L173.511 5.43841V34.6042H173.525ZM121.729 32.7428C118.186 36.8466 115.633 37.8871 111.854 37.8871C103.824 37.8871 100.547 32.1419 100.547 26.2941V25.5027H122.187C121.877 18.5557 117.921 12.6346 109.95 12.6346C100.001 12.6346 94.613 20.6075 94.613 28.8443C94.613 38.1363 101.477 43.8815 109.271 43.8815C117.064 43.8815 121.257 37.1104 122.334 33.2851C122.128 33.0946 121.729 32.7721 121.729 32.7721V32.7428ZM100.783 23.5534C101.713 18.6583 104.857 14.364 109.492 14.364C113.271 14.364 114.939 18.1746 114.939 22.0438C114.939 22.5568 114.939 23.0551 114.88 23.5681H100.783V23.5534ZM31.4653 32.1859C31.4653 27.0562 27.2584 21.8533 20.0993 21.8533H14.3425V41.1848H22.0773C28.5721 41.1848 31.4801 37.0811 31.4801 32.1859H31.4653ZM14.3573 19.9187H21.1621C26.4761 19.9187 29.015 15.3313 29.015 11.638C29.015 6.99196 26.048 2.81496 20.6012 2.81496H14.3277L14.3573 19.904V19.9187ZM39.7167 31.6436C39.7167 37.213 34.5799 43.178 25.2066 43.178H0.836163V42.4745L6.81438 39.1329V4.9401L0.806641 1.58384V0.880346H24.7195C33.1333 0.880346 37.2811 5.65825 37.2811 10.2456C37.2811 14.5399 33.7533 18.9514 27.0222 20.373C34.757 21.4576 39.7019 26.1769 39.7019 31.6143H39.7315L39.7167 31.6436ZM40.9862 43.1634H58.6551V42.4599L53.1492 39.1183V0.895002H40.5138V1.5985L46.5068 4.95476V39.1476L41.0009 42.4892L40.9714 43.1634H40.9862ZM246.652 43.9841C246.371 43.9841 246.091 43.9255 245.825 43.8229C245.574 43.7203 245.338 43.5737 245.146 43.3832C244.954 43.1927 244.792 42.9728 244.688 42.7237C244.526 42.3426 244.482 41.9176 244.555 41.5072C244.644 41.0968 244.836 40.7304 245.146 40.4373C245.441 40.1442 245.825 39.939 246.253 39.8657C246.666 39.7924 247.109 39.8364 247.493 39.9976C247.744 40.1002 247.98 40.2614 248.172 40.452C248.364 40.6425 248.526 40.8623 248.63 41.1115C248.748 41.3753 248.807 41.6391 248.807 41.9176C248.807 42.1961 248.748 42.4745 248.63 42.7237C248.408 43.222 248.01 43.6177 247.493 43.8375C247.227 43.9548 246.947 44.0134 246.652 43.9988V43.9841ZM244.88 41.8883C244.88 42.1228 244.924 42.3426 245.028 42.5625C245.116 42.7676 245.249 42.9435 245.412 43.1047C245.574 43.266 245.766 43.3832 245.973 43.4711C246.194 43.5591 246.415 43.603 246.652 43.603C246.888 43.603 247.124 43.5591 247.345 43.4711C247.552 43.3832 247.744 43.266 247.906 43.1047C248.069 42.9435 248.201 42.7676 248.29 42.5625C248.379 42.3426 248.438 42.1228 248.438 41.8883C248.438 41.6538 248.393 41.4339 248.29 41.2141C248.201 41.0089 248.069 40.8184 247.906 40.6572C247.744 40.4959 247.552 40.3787 247.345 40.2908C247.124 40.2028 246.888 40.1588 246.652 40.1588C246.415 40.1588 246.179 40.2028 245.973 40.2908C245.544 40.4666 245.205 40.7891 245.028 41.2141C244.939 41.4193 244.88 41.6538 244.88 41.8883ZM247.419 41.4193C247.419 41.4193 247.419 41.5365 247.39 41.5952C247.345 41.7124 247.272 41.815 247.183 41.9029C247.139 41.9469 247.08 41.9762 247.021 41.9909L247.714 42.9582H247.242L246.563 42.0055H246.342V42.9582H245.928V40.8477H246.77C246.858 40.8477 246.932 40.8477 247.021 40.877C247.08 40.8917 247.153 40.921 247.198 40.9649C247.272 41.0236 247.331 41.0822 247.36 41.1555C247.404 41.2287 247.419 41.3167 247.419 41.4046V41.4193ZM246.342 41.6391H246.74C246.74 41.6391 246.843 41.6391 246.888 41.6391C246.917 41.6391 246.947 41.6098 246.962 41.5952C246.976 41.5805 246.991 41.5512 247.006 41.5219C247.006 41.4926 247.006 41.4632 247.006 41.4339C247.006 41.3753 246.991 41.3313 246.947 41.2874C246.917 41.2581 246.902 41.2434 246.873 41.2287C246.829 41.2287 246.77 41.2287 246.725 41.2287H246.327V41.6245L246.342 41.6391Z" fill="white"></path>
</svg>
