<?xml version="1.0" encoding="UTF-8"?>
<svg xmlns="http://www.w3.org/2000/svg" width="249" height="24" viewBox="0 0 249 24" fill="none">
  <path d="M13.377 10.157V9.99051C15.8157 9.07471 17.345 7.8259 17.3037 4.70386C17.221 1.41532 13.5837 0.499525 11.3517 0.499525H0.935694V1.16556C1.47303 1.20719 2.42369 1.41532 3.08503 1.66508C3.82903 1.95647 4.03569 2.49763 4.03569 3.20529V18.8571C4.03569 19.5231 3.82903 20.0643 3.08503 20.314C2.67169 20.4805 1.39036 20.6887 0.853027 20.7303V21.3963H11.4344C14.3277 21.3963 18.0477 19.7729 18.0477 15.8599C18.0064 11.9886 15.5264 10.49 13.377 10.157ZM10.0704 20.5638C8.29303 20.5638 7.42503 20.0643 7.21836 18.6906V1.41532C7.96236 1.37369 9.20236 1.33207 9.69836 1.33207C11.5997 1.33207 13.625 2.24786 13.625 5.28664C13.625 6.9101 13.129 8.36705 11.9304 9.15797C11.269 9.57424 9.61569 9.74074 8.66503 9.78237V10.3652C9.49169 10.4484 10.9797 10.6149 11.7237 10.9063C13.873 11.7388 14.6584 13.279 14.6584 15.2355C14.617 17.7332 13.7077 20.5638 10.0704 20.5638ZM31.5637 0C28.629 0 25.9424 1.0823 23.8757 3.16366C21.8917 5.16176 20.941 7.8259 20.941 11.1561C20.941 14.4862 22.181 17.1087 24.2064 18.982C26.1904 20.8552 28.7117 21.8542 31.481 21.8542C34.6224 21.8542 37.061 20.7719 39.045 18.9403C41.277 16.7757 42.1864 13.9867 42.1864 10.7814C42.1864 7.78427 41.1117 4.95363 39.293 3.16366C37.0197 0.957423 34.4157 0 31.5637 0ZM31.5637 20.9384C26.8104 20.9384 24.6197 16.4843 24.6197 11.0312C24.6197 4.70386 27.265 0.957423 31.5637 0.957423C36.6064 0.957423 38.5077 5.91105 38.5077 10.9063C38.5077 16.6092 36.2757 20.9384 31.5637 20.9384ZM61.241 15.4853H61.985L61.5304 21.438H44.1704V20.7719C44.7077 20.7303 45.9477 20.6054 46.361 20.4389C47.105 20.1475 47.3117 19.6064 47.3117 18.8987V3.33017C47.3117 2.66414 47.1464 2.12298 46.361 1.78997C45.8237 1.5402 44.7077 1.24881 44.1704 1.20719V0.541152H53.677V1.20719C53.1397 1.24881 52.0237 1.45695 51.445 1.62346C50.701 1.87322 50.4944 2.456 50.4944 3.16366V17.8164C50.4944 20.3973 50.825 20.6471 54.1317 20.6471C55.909 20.6471 57.9757 20.4805 58.5957 19.8561C59.4224 18.9403 60.9517 16.526 61.241 15.4853ZM81.2877 15.4853H82.0317L81.577 21.438H64.217V20.7719C64.7544 20.7303 65.9944 20.6054 66.4077 20.4389C67.1517 20.1475 67.3584 19.6064 67.3584 18.8987V3.33017C67.3584 2.66414 67.193 2.12298 66.4077 1.78997C65.8704 1.5402 64.7544 1.24881 64.217 1.20719V0.541152H73.765V1.20719C73.2277 1.24881 72.1117 1.45695 71.533 1.62346C70.789 1.87322 70.5824 2.456 70.5824 3.16366V17.8164C70.5824 20.3973 70.913 20.6471 74.2197 20.6471C75.997 20.6471 78.0637 20.4805 78.6837 19.8561C79.4277 18.9403 80.9984 16.526 81.2877 15.4853ZM223.102 15.6934L223.888 16.1097C222.648 18.9403 220.209 21.8542 215.58 21.8542C209.586 21.8542 205.536 17.6915 205.536 11.1977C205.536 4.70386 210.124 0.0832538 216.241 0.0832538C217.894 0.0832538 219.92 0.874169 220.829 1.74834L221.738 0.166508H223.102V7.74264H222.358C221.284 4.20434 219.217 0.999051 215.29 0.999051C212.19 0.999051 209.173 4.03783 209.173 10.9896C209.173 16.526 212.48 20.314 216.448 20.314C220.209 20.2724 221.945 18.3576 223.102 15.6934ZM245.753 3.08041V18.7738C245.753 19.4399 246.001 19.9394 246.704 20.2724C247.076 20.4389 248.274 20.6887 248.853 20.7303V21.3963H239.429V20.7303C239.966 20.6887 241.206 20.5638 241.62 20.4389C242.364 20.1475 242.57 19.6064 242.57 18.9403V11.0312H232.072V18.7738C232.072 19.4399 232.32 19.981 233.022 20.2724C233.394 20.4389 234.676 20.6887 235.213 20.7303V21.3963H225.789V20.7303C226.326 20.6887 227.525 20.5638 227.938 20.4389C228.682 20.1475 228.889 19.6064 228.889 18.9403V3.20529C228.889 2.53925 228.682 1.9981 227.938 1.70671C227.442 1.49858 226.368 1.20719 225.789 1.16556V0.499525H235.172V1.16556C234.634 1.20719 233.518 1.37369 232.981 1.58183C232.237 1.83159 232.03 2.41437 232.03 3.08041V10.0321H242.529V3.24691C242.529 2.58088 242.281 2.03973 241.578 1.74834C241.082 1.5402 239.925 1.24881 239.388 1.20719V0.541152H248.812V1.20719C248.274 1.24881 247.241 1.41532 246.662 1.62346C245.918 1.83159 245.753 2.41437 245.753 3.08041ZM133.988 10.157V9.99051C136.426 9.07471 137.956 7.8259 137.914 4.70386C137.832 1.41532 134.194 0.499525 131.962 0.499525H121.546V1.16556C122.084 1.20719 123.034 1.41532 123.696 1.66508C124.44 1.95647 124.646 2.49763 124.646 3.20529V18.8571C124.646 19.5231 124.44 20.0643 123.696 20.314C123.282 20.4805 122.001 20.6887 121.464 20.7303V21.3963H132.045C134.938 21.3963 138.658 19.7729 138.658 15.8599C138.617 11.9886 136.137 10.49 133.988 10.157ZM130.681 20.5638C128.904 20.5638 128.036 20.0643 127.829 18.6906V1.41532C128.573 1.37369 129.813 1.33207 130.309 1.33207C132.21 1.33207 134.236 2.24786 134.236 5.28664C134.236 6.9101 133.74 8.36705 132.541 9.15797C131.88 9.57424 130.226 9.74074 129.276 9.78237V10.3652C130.102 10.4484 131.59 10.6149 132.334 10.9063C134.484 11.7388 135.269 13.279 135.269 15.2355C135.269 17.7332 134.318 20.5638 130.681 20.5638ZM115.305 21.8959L115.553 22.437C115.553 22.437 111.502 25.226 108.32 23.3528C105.84 21.8959 103.69 19.2317 102.45 17.6083C100.797 15.402 98.3997 12.3633 97.1184 10.4484C95.3824 11.5723 94.721 13.2374 94.721 15.2355C94.721 17.6915 96.1264 19.5647 98.6064 19.5647C99.5984 19.5647 100.59 19.2734 101.417 18.6906L101.954 19.3566C100.714 20.4389 99.185 21.3963 97.325 21.3963C94.5144 21.3963 91.621 19.8978 91.621 16.4427C91.621 13.6121 93.2744 11.9054 96.6224 9.78237C95.093 7.40963 94.473 6.11919 94.473 4.62061C94.473 1.87322 96.8704 0 99.5984 0C102.326 0 103.36 1.9981 103.36 3.9962C103.36 5.45315 102.533 6.86847 100.88 8.15891L100.425 7.49288C101.5 6.49383 101.996 5.3699 101.996 3.91295C101.996 1.95647 101.004 0.915796 99.681 0.915796C97.697 0.915796 97.3664 2.87227 97.3664 3.74644C97.3664 4.82875 97.7797 5.9943 98.7304 7.53451L98.7717 7.61776L99.0197 8.03403L99.681 9.03308C101.5 11.7388 102.74 13.3207 104.6 15.6102C105.881 13.7786 106.997 11.5307 106.997 10.157C106.997 9.44935 105.881 8.94983 104.31 8.61681V7.99241H112.866V8.61681C111.172 8.78332 109.766 8.99146 108.816 10.0738C107.948 11.0728 106.956 13.9867 105.096 16.2346C110.924 24.4351 114.189 22.3121 115.305 21.8959ZM98.7717 7.53451C98.7717 7.53451 98.813 7.57613 98.813 7.61776L98.7717 7.53451ZM195.781 1.16556C196.484 1.20719 198.302 1.70671 198.881 2.08136C199.542 2.49763 199.914 3.9962 199.914 6.20244V16.5676L187.225 0.499525H180.942V1.16556C181.769 1.20719 183.464 1.91485 184.208 2.49763C184.828 2.99715 185.2 4.03783 185.2 4.912V13.7369C185.2 16.1097 185.2 17.0671 184.621 18.8987C184.001 20.7303 180.364 20.6054 179.413 19.4815C178.876 18.8155 178.421 17.9829 178.173 17.3585C177.057 14.5279 174.577 8.03403 171.477 0.166508H170.32C168.005 5.9943 165.484 12.4881 163.334 17.7748C162.88 18.8571 162.342 19.7313 161.598 20.1475C161.268 20.314 160.441 20.6054 159.449 19.315L153.084 10.6565C156.556 9.74074 157.506 7.90915 157.548 5.32827C157.548 3.9962 157.134 2.9139 155.977 1.9981C154.654 0.957423 153.001 0.499525 149.694 0.499525H140.601V1.16556C143.205 1.41532 143.825 1.74834 143.825 3.91295V16.9839C143.825 20.5638 143.494 20.4389 140.601 20.7303V21.3963H150.108V20.7303C147.38 20.3973 146.966 20.5638 146.966 17.9829V1.33207C151.72 1.0823 154.076 1.74834 154.158 5.70292C154.2 7.24312 153.745 8.53356 152.174 9.3661C151.1 9.94888 149.86 9.99051 148.413 9.99051V10.6149C148.413 10.6149 149.405 10.5733 149.736 10.9479C150.893 12.28 157.382 21.3963 157.382 21.3963H167.881V20.7303C166.806 20.647 164.45 20.1891 164.45 19.0652C164.45 18.6489 164.574 18.0245 164.781 17.3585C165.07 16.4427 165.442 15.402 166.021 13.9867H173.502L175.404 18.8155C175.486 19.0652 175.528 19.315 175.528 19.5231C175.528 20.2724 173.544 20.647 172.469 20.7303V21.3963H190.614V20.7303C190.077 20.6887 188.01 20.1891 187.473 19.7313C186.812 19.1901 186.44 17.858 186.44 15.5269V4.28759L200.08 21.5628H201.196V5.9943C201.196 3.9962 201.361 2.41437 202.188 1.91485C202.684 1.62346 204.42 1.16556 204.998 1.16556V0.499525H195.946L195.781 1.16556ZM166.31 12.9877L169.617 4.4541L173.006 12.9877H166.31Z" fill="white"></path>
</svg>
