<svg width="578" height="488" fill="none" xmlns="http://www.w3.org/2000/svg"><g clip-path="url(#clip0_1347_1452)"><path d="M458.94 235.94c8.939-36.239-16.679-70.946-41.991-85.883-10.595-6.251-23.561-9.794-39.31-9.041-.465-6.078-3.886-43.22-33.873-67.828-23.356-19.168-48.495-18.967-56.731-18.48-39.191 2.317-62.15 32.756-65.79 37.744-2.7-1.062-37.061-13.842-66.478 9.771-22.37 17.956-32.719 49.594-26.129 80.197-3.721.078-22.119.867-36.326 16.962-2.531 2.868-17.865 20.878-13.363 45.308 3.388 18.397 16.715 33.33 34.224 38.66h303.648c4.383-1.902 34.233-15.43 42.119-47.41z" fill="#fff"/><path d="M416.816 283.806H113.168a.443.443 0 01-.132-.018c-8.688-2.645-16.51-7.683-22.612-14.564a50.664 50.664 0 01-11.922-24.452c-4.301-23.363 9.222-40.881 13.472-45.691 12.926-14.645 29.167-16.87 36.108-17.103-6.408-30.671 3.922-62.068 26.407-80.11 12.387-9.94 27.041-14.727 43.56-14.24 11.885.356 20.706 3.388 23.046 4.273 6.376-8.659 29.029-35.469 65.921-37.648 11.986-.711 35.333.766 57.047 18.58 28.131 23.085 33.129 57.103 34.005 67.704 14.635-.625 27.798 2.444 39.122 9.124 13.596 8.02 25.988 20.823 34.006 35.121 6.604 11.778 13.381 30.23 8.195 51.263-3.343 13.551-10.918 25.401-22.521 35.227-8.483 7.185-16.715 11.134-19.858 12.497a.493.493 0 01-.182.037h-.014zm-303.579-.912h303.484c5.856-2.553 34.201-16.369 41.772-47.063 8.492-34.434-15.188-69.688-41.782-85.382-11.278-6.657-24.418-9.68-39.054-8.977-.255 0-.456-.174-.474-.42-.766-9.976-5.455-44.327-33.709-67.512-21.472-17.623-44.563-19.082-56.412-18.375-36.906 2.18-59.423 29.3-65.447 37.556a.451.451 0 01-.534.155c-1.026-.405-10.412-3.957-23.068-4.336-16.296-.483-30.749 4.236-42.958 14.039-22.348 17.937-32.542 49.238-25.97 79.746a.45.45 0 01-.086.378.479.479 0 01-.347.174c-6.476.132-22.954 2.029-35.994 16.806-4.177 4.733-17.486 21.968-13.258 44.925 3.361 18.26 16.328 32.928 33.841 38.286h-.004z" fill="#1C1C1C"/><path d="M167.359 248.329h67.685c2.533 0 4.587 2.066 4.587 4.604v60.317c0 2.542-2.058 4.603-4.587 4.603h-67.685c-2.533 0-4.587-2.065-4.587-4.603v-60.317c0-2.543 2.058-4.604 4.587-4.604z" fill="#fff"/><g clip-path="url(#clip1_1347_1452)" fill="#1C1C1C"><path d="M195.105 272.424h11.585a4.355 4.355 0 014.355 4.355v11.585a4.356 4.356 0 01-4.355 4.355h-11.585a4.355 4.355 0 01-4.355-4.355v-11.585a4.348 4.348 0 014.355-4.355zm-9.472 11.807h-6.152l2.558 2.411c.709.665.74 1.775.074 2.473l-.052.053-.022.021a1.746 1.746 0 01-2.462 0c-1.385-1.374-3.616-3.573-4.863-4.831-1.173-1.184-1.173-2.42-.01-3.594 1.617-1.617 3.224-3.234 4.82-4.83a1.69 1.69 0 012.42.021l.032.042a1.719 1.719 0 01-.032 2.431h-.01l-2.516 2.431h6.205c.93 0 1.681.751 1.681 1.681.01.941-.74 1.691-1.671 1.691zm30.528 0h6.152l-2.558 2.411a1.742 1.742 0 00-.074 2.473l.053.053.021.021a1.747 1.747 0 002.463 0c1.385-1.374 3.615-3.573 4.863-4.831 1.173-1.184 1.184-2.42.021-3.594a2202.212 2202.212 0 00-4.82-4.83 1.691 1.691 0 00-2.4 0l-.021.021-.042.042a1.72 1.72 0 00.031 2.431h.011l2.516 2.442h-6.205c-.93 0-1.681.751-1.681 1.681a1.67 1.67 0 001.67 1.68zm-16.923-16.923v-6.153l-2.41 2.559a1.744 1.744 0 01-2.474.074l-.053-.053-.021-.021a1.75 1.75 0 010-2.463c1.374-1.385 3.573-3.616 4.831-4.863 1.184-1.173 2.421-1.173 3.594-.01 1.617 1.617 3.234 3.224 4.831 4.82a1.69 1.69 0 010 2.399l-.022.021-.042.032a1.719 1.719 0 01-2.431-.032v-.01l-2.431-2.516v6.205c0 .93-.751 1.681-1.681 1.681a1.665 1.665 0 01-1.691-1.67zm0 30.527v6.152l-2.41-2.558a1.744 1.744 0 00-2.474-.074l-.053.053-.021.021a1.75 1.75 0 000 2.463c1.374 1.385 3.573 3.615 4.831 4.862 1.184 1.174 2.421 1.184 3.594.022 1.617-1.607 3.234-3.224 4.831-4.821a1.69 1.69 0 000-2.399l-.022-.021-.042-.043a1.72 1.72 0 00-2.431.032v.011l-2.431 2.516v-6.205c0-.931-.751-1.681-1.681-1.681a1.664 1.664 0 00-1.691 1.67z"/></g><path d="M235.044 318.321h-67.685c-2.783 0-5.048-2.274-5.048-5.067v-60.317c0-2.793 2.265-5.067 5.048-5.067h67.685c2.783 0 5.048 2.274 5.048 5.067v60.317c0 2.793-2.265 5.067-5.048 5.067zm-67.685-69.529c-2.275 0-4.126 1.857-4.126 4.141v60.316c0 2.283 1.851 4.141 4.126 4.141h67.685c2.275 0 4.125-1.858 4.125-4.141v-60.316c0-2.284-1.85-4.141-4.125-4.141h-67.685zm-33.17 44.794l-2.276-17.782s13.486-12.735 4.205-22.346c-6.7-6.94-16.975 3.88-25.454 4.897-8.478 1.017-15.748 2.904-21.695 20.285-5.948 17.381-18.631 44.587-21.454 52.781l63.869-3.885 2.8-33.95h.005z" fill="#1C1C1C"/><path d="M173.617 364.614s-16.775-19.118-23.593-28.055a34.426 34.426 0 00-23.255-13.282c-5.327-.643-11.954-2.954-19.562-3.055-10.28-.132-22.21 1.117-32.669 3.055-13.933 2.576-26.238 10.674-34.242 22.374l-19.078 27.89 21.632 10.555-5.993 48.413 116.474-.009 20.286-67.886z" fill="#FE5000"/><path d="M48.747 383.636l-22.284-7.532S-.54 413.3 16.302 429.363c16.848 16.063 61.835-34.046 70.022-45.349 0 0 5.272 1.227 4.52-2.261 0 0 6.398 2.352 6.398-2.449 0 0 6.591 1.706 5.273-4.514 0 0 6.33 7.414 8.273 6.425 2.983-1.519-.648-7.751-3.38-12.461-2.727-4.71-12.223-16.355-33.13-3.575-17.038 10.418-25.535 18.457-25.535 18.457h.004z" fill="#fff"/><path d="M24.575 432.965c-3.43 0-6.299-1.089-8.583-3.273-7.038-6.707-7.503-18.174-1.346-33.157 4.611-11.226 11.384-20.609 11.452-20.7a.458.458 0 01.74.538c-.27.369-26.581 37.06-10.213 52.662 4.388 4.186 11.188 4.013 20.205-.511a.453.453 0 01.61.206.453.453 0 01-.204.611c-4.821 2.416-9.049 3.629-12.661 3.629v-.005z" fill="#1C1C1C"/><path d="M23.53 405.047a.435.435 0 01-.35-.168.456.456 0 01.063-.643l24.067-19.77a.455.455 0 01.643.064.455.455 0 01-.063.642l-24.068 19.77a.461.461 0 01-.287.105h-.005zm62.077-20.581h-.054a15.536 15.536 0 01-7.53-3.051.452.452 0 01-.087-.638c.15-.2.438-.242.639-.086a14.622 14.622 0 007.087 2.867.453.453 0 01.397.507.454.454 0 01-.452.401zm5.555-2.221a.409.409 0 01-.228-.064 14.122 14.122 0 01-2.818-2.17.454.454 0 11.643-.643 13.114 13.114 0 002.636 2.029.457.457 0 01-.228.853l-.005-.005zm6.299-2.626a.466.466 0 01-.337-.146l-2.313-2.517a.454.454 0 11.67-.615l2.313 2.516a.454.454 0 01-.337.762h.004zm5.058-4.377a.461.461 0 01-.347-.16 21.311 21.311 0 01-.825-1.035c-.301-.392-.611-.797-1.067-1.313a.456.456 0 01.684-.602c.479.538.798.958 1.108 1.364.251.328.488.638.794.994a.455.455 0 01-.347.752z" fill="#1C1C1C"/><path d="M120.525 322.284l8.82 1.404s-1.459 10.268-7.502 13.168c-10.294 4.942-39.474-14.86-39.474-14.86l14.408-1.823a9.584 9.584 0 006.412-6.557l5.847-20.696 16.269 8.171-4.78 21.188v.005z" fill="#fff"/><path d="M110.026 287.9s-3.941-6.661-8.26-5.321c-6.576 2.052-6.152 13.816 4.689 13.25 0 0 12.825 16.401 25.13 11.846 12.305-4.551 3.279-32.286.894-37.037 0 0-15.589 1.418-17.569 7.683-1.742 5.512.671 9.575-4.889 9.575l.005.004z" fill="#fff"/><path d="M127.038 308.942c-10.203 0-19.461-10.993-20.797-12.648-5.879.219-8.58-3.041-9.145-6.196-.634-3.534 1.318-6.953 4.534-7.956 4.186-1.304 7.881 4.085 8.647 5.293 3.06-.073 3.17-1.504 3.379-4.281.105-1.386.233-3.11.821-4.97 2.048-6.484 17.313-7.943 17.961-8.002a.453.453 0 01.447.251c1.924 3.834 8.095 22.314 4.228 32.126-1.091 2.768-2.897 4.633-5.373 5.544a13.433 13.433 0 01-4.707.839h.005zm-20.583-13.569c.141 0 .274.064.36.174.128.159 12.766 16.081 24.615 11.699 2.221-.82 3.849-2.512 4.839-5.024 3.671-9.311-2.03-26.792-4.059-31.101-2.19.242-15.147 1.902-16.862 7.337-.556 1.76-.675 3.355-.779 4.764-.215 2.868-.388 5.13-4.543 5.13a.46.46 0 01-.392-.224c-.037-.064-3.808-6.342-7.731-5.115-3.165.984-4.378 4.304-3.908 6.921.506 2.813 2.987 5.722 8.437 5.435h.023v.004z" fill="#000"/><path d="M107.732 292.191a.458.458 0 01-.315-.123c-1.496-1.418-3.68-2.052-5.701-1.646a.457.457 0 01-.182-.894c2.307-.46 4.802.26 6.508 1.879a.455.455 0 01-.315.784h.005z" fill="#000"/><path d="M142.74 378.352l-18.63 50.314H66.885c-.802 0-1.518.501-1.797 1.254a1.917 1.917 0 001.797 2.585H179.78c1.4 0 2.649-.871 3.137-2.184l18.586-50.186a2.554 2.554 0 00-2.395-3.443H145.14a2.552 2.552 0 00-2.394 1.669l-.005-.009z" fill="#1C1C1C"/><path d="M45.627 89.525c.023.379.078.748.146 1.113a37.621 37.621 0 00-10.065 4.974 8.7 8.7 0 00-.794-.793c-3.831-3.356-9.66-2.973-13.016.861-3.357 3.835-2.974 9.662.857 13.022.287.251.584.475.89.684a37.522 37.522 0 00-3.604 10.638 8.937 8.937 0 00-1.122 0c-5.08.337-8.93 4.732-8.597 9.816.338 5.084 4.73 8.932 9.81 8.6a9.064 9.064 0 001.113-.151 37.57 37.57 0 004.972 10.072 9.292 9.292 0 00-.794.793c-3.357 3.835-2.974 9.662.858 13.022 3.83 3.356 9.66 2.973 13.016-.861a9.12 9.12 0 00.68-.89 37.505 37.505 0 0010.63 3.602 9.23 9.23 0 000 1.122c.338 5.084 4.73 8.932 9.811 8.599 5.08-.337 8.93-4.732 8.597-9.816a8.939 8.939 0 00-.146-1.113 37.593 37.593 0 0010.066-4.974c.246.278.506.542.793.793 3.831 3.356 9.66 2.973 13.017-.862a9.232 9.232 0 00-.858-13.022 9.62 9.62 0 00-.889-.683 37.536 37.536 0 003.603-10.638c.37.018.743.028 1.122 0 5.081-.337 8.93-4.733 8.597-9.816-.337-5.084-4.73-8.932-9.81-8.6a8.191 8.191 0 00-1.113.151 37.573 37.573 0 00-4.971-10.072c.273-.246.543-.506.793-.793 3.357-3.835 2.974-9.662-.857-13.022-3.831-3.356-9.66-2.973-13.016.861a8.815 8.815 0 00-.68.89 37.54 37.54 0 00-10.631-3.603 9.317 9.317 0 000-1.121c-.338-5.084-4.73-8.932-9.81-8.6-5.081.338-8.93 4.733-8.598 9.817zm28.788 36.066c.625 9.443-6.522 17.604-15.963 18.229-9.436.624-17.595-6.525-18.215-15.968-.625-9.442 6.521-17.604 15.962-18.229 9.436-.624 17.596 6.525 18.216 15.968zm39.054-65.867c.014.2.041.392.078.584a19.663 19.663 0 00-5.272 2.603 4.566 4.566 0 00-.415-.415 4.833 4.833 0 10-5.902 7.628 19.603 19.603 0 00-1.888 5.572 5.069 5.069 0 00-.589 0 4.83 4.83 0 00-4.501 5.143 4.836 4.836 0 005.14 4.505c.201-.014.392-.041.584-.078a19.669 19.669 0 002.604 5.276 4.404 4.404 0 00-.415.415 4.832 4.832 0 107.27 6.37 5 5 0 00.356-.466 19.64 19.64 0 005.568 1.888 5.246 5.246 0 000 .588 4.83 4.83 0 109.642-.638 4.819 4.819 0 00-.078-.584 19.666 19.666 0 005.272-2.603 4.831 4.831 0 106.317-7.213 19.603 19.603 0 001.888-5.572c.192.009.388.013.589 0a4.83 4.83 0 004.501-5.143 4.836 4.836 0 00-5.14-4.505 4.985 4.985 0 00-.584.077 19.669 19.669 0 00-2.604-5.275c.146-.128.283-.264.415-.415a4.832 4.832 0 10-7.27-6.37 4.81 4.81 0 00-.355.465 19.65 19.65 0 00-5.569-1.887 5.018 5.018 0 000-.588 4.83 4.83 0 10-9.642.638zm15.078 18.89a8.973 8.973 0 01-8.36 9.548c-4.944.328-9.217-3.42-9.541-8.362a8.973 8.973 0 018.36-9.548c4.944-.328 9.217 3.42 9.541 8.362z" fill="#EDA506"/><path d="M525.823 308.432a6.234 6.234 0 10-6.234-6.233 6.234 6.234 0 006.234 6.233z" fill="#fff"/><path d="M525.824 308.883c-3.69 0-6.691-3-6.691-6.689a6.697 6.697 0 016.691-6.689c3.689 0 6.69 3 6.69 6.689a6.697 6.697 0 01-6.69 6.689zm0-12.461a5.784 5.784 0 00-5.779 5.776 5.782 5.782 0 005.779 5.777 5.782 5.782 0 005.778-5.777 5.782 5.782 0 00-5.778-5.776z" fill="#000"/><path d="M507.635 308.432a6.234 6.234 0 10-6.234-6.233 6.234 6.234 0 006.234 6.233z" fill="#fff"/><path d="M507.635 308.883c-3.689 0-6.69-3-6.69-6.689a6.697 6.697 0 016.69-6.689c3.69 0 6.691 3 6.691 6.689a6.697 6.697 0 01-6.691 6.689zm0-12.461a5.784 5.784 0 00-5.778 5.776 5.781 5.781 0 005.778 5.777 5.782 5.782 0 005.779-5.777 5.782 5.782 0 00-5.779-5.776z" fill="#000"/><path d="M489.447 308.431a6.233 6.233 0 100-12.465 6.234 6.234 0 100 12.465z" fill="#fff"/><path d="M489.447 308.882c-3.69 0-6.691-3-6.691-6.688a6.697 6.697 0 016.691-6.689c3.689 0 6.69 3 6.69 6.689a6.696 6.696 0 01-6.69 6.688zm0-12.461a5.785 5.785 0 00-5.779 5.777 5.783 5.783 0 005.779 5.777 5.782 5.782 0 005.778-5.777 5.782 5.782 0 00-5.778-5.777z" fill="#000"/><path d="M561.795 302.654h-22.011a.457.457 0 010-.912h21.554v-37.237c0-.251.206-.456.457-.456.25 0 .456.205.456.456v37.693a.458.458 0 01-.456.456zm-117.819-.136h-34.079a.458.458 0 01-.456-.456c0-.251.206-.456.456-.456h34.079a.457.457 0 010 .912zm24.783 0h-17.732a.457.457 0 010-.912h17.732a.457.457 0 010 .912zm-39.939 12.196h-18.923a.458.458 0 01-.456-.456c0-.25.206-.456.456-.456h18.923a.457.457 0 010 .912zm39.939 0h-32.783a.457.457 0 010-.912h32.783a.457.457 0 010 .912zm0 12.429l-108.278-.246a.458.458 0 01-.456-.456c0-.251.206-.456.456-.456l108.278.246a.457.457 0 010 .912zm-425.134 9.986h-33.54a.457.457 0 01-.456-.456V201.698c0-.251.205-.456.456-.456h50.798v-22.273a.457.457 0 01.912 0v22.729a.457.457 0 01-.456.456H10.541v134.063h33.084c.251 0 .456.205.456.456a.457.457 0 01-.456.456zm523.734 95.836H454.352a.459.459 0 01-.457-.456c0-.251.206-.456.457-.456h112.551V389.23H415.079v43.279a.47.47 0 01-.133.323.441.441 0 01-.323.133l-221.855-.01a.457.457 0 01-.456-.456c0-.25.205-.455.456-.455l221.398.009v-43.279c0-.251.206-.456.457-.456h152.736c.251 0 .456.205.456.456v43.735c0 .25-.205.456-.456.456z" fill="#1C1C1C"/><path d="M577.903 369.491H425.167v53.032h152.736v-53.032z" fill="#EDA506"/><path d="M468.759 366.724a.457.457 0 01-.456-.456V354.5l-107.822-.241a.457.457 0 010-.912l108.278.246c.251 0 .456.205.456.456v12.219a.457.457 0 01-.456.456z" fill="#1C1C1C"/><path d="M268.025 227.764h67.685c2.533 0 4.587 2.065 4.587 4.603v60.317c0 2.543-2.059 4.604-4.587 4.604h-67.685c-2.534 0-4.587-2.066-4.587-4.604v-60.317c0-2.542 2.058-4.603 4.587-4.603z" fill="#fff"/><path d="M299.214 254.461c2.033 0 3.872.826 5.202 2.156.123.123.244.251.361.385a4.128 4.128 0 00-.052.672v9.026c-.101.109-.203.218-.309.324a7.361 7.361 0 01-12.564-5.203 7.363 7.363 0 017.362-7.36zm6.512 16.204a8.437 8.437 0 01-.618-1.421 9.477 9.477 0 01-15.372-7.421 9.477 9.477 0 019.478-9.478c2.509 0 4.788.974 6.482 2.562a4.426 4.426 0 015.014-1.375 4.4 4.4 0 014.046-1.104 1.09 1.09 0 01.088-.796l1.333-2.622a1.096 1.096 0 00-.203-1.29l-2.662-2.662a1.094 1.094 0 00-1.286-.204l-2.626 1.338a1.081 1.081 0 01-1.062-.033 17.936 17.936 0 00-4.504-1.865 1.09 1.09 0 01-.775-.731l-.909-2.8a1.097 1.097 0 00-1.058-.767h-3.763c-.491 0-.906.301-1.054.767l-.91 2.8c-.123.367-.4.628-.774.731-1.6.418-3.112 1.05-4.505 1.865a1.091 1.091 0 01-1.066.033l-2.621-1.338a1.098 1.098 0 00-1.29.204l-2.662 2.662a1.1 1.1 0 00-.204 1.29l1.338 2.622a1.09 1.09 0 01-.032 1.065 18.046 18.046 0 00-1.869 4.505c-.098.374-.36.654-.731.774l-2.796.91a1.094 1.094 0 00-.764 1.054v3.763c0 .491.301.905.767 1.058l2.8.909c.367.121.628.397.731.775a17.936 17.936 0 001.865 4.504c.196.335.207.716.032 1.062l-1.338 2.626a1.09 1.09 0 00.204 1.286l2.661 2.662c.345.345.854.428 1.29.203l2.622-1.333a1.08 1.08 0 011.066.029 18.018 18.018 0 004.504 1.869c.375.099.65.36.775.731l.909 2.796a1.09 1.09 0 001.054.767h3.764c.491 0 .905-.302 1.058-.767l.909-2.796a1.08 1.08 0 01.775-.731 17.978 17.978 0 003.198-1.175v-4.138c0-.697-.145-1.258-.479-1.868l-.83-1.507zm19.137-9.984l-2.138-.574-3.89-1.04c-.48-.099-.862-.08-1.294.17a1.691 1.691 0 00-.854 1.494c0 .276.069.545.207.801.274.422.553.693 1.055.828l3.89 1.044a.776.776 0 01.549.949l-.979 3.654a.777.777 0 01-.759.615h-.622a3.93 3.93 0 00-2.782 1.155 3.927 3.927 0 00-1.156 2.782.776.776 0 11-1.553 0c0-1.512.614-2.887 1.611-3.88a5.463 5.463 0 013.88-1.611h.029l.633-2.366-3.094-.828a3.18 3.18 0 01-1.488-.839 3.265 3.265 0 01-2.574 1.262 3.258 3.258 0 01-2.073-.749 3.266 3.266 0 01-.588.8 3.238 3.238 0 01-2.301.957 3.207 3.207 0 01-1.705-.484v2.21c0 .513.052.979.165 1.417.112.44.291.873.534 1.32l.89 1.621c.306.553.528 1.106.676 1.683.149.585.222 1.175.222 1.8v7.845c0 .513.415.927.928.927h10.964a.928.928 0 00.927-.927v-7.431c0-.779.109-1.508.335-2.214a7.245 7.245 0 011.015-1.992l.36-.497c.208-.291.378-.579.52-.876.138-.298.251-.611.345-.96l1.512-5.646a1.967 1.967 0 00-.179-1.462c-.316-.488-.64-.801-1.218-.958zm-17.494-4.643a1.688 1.688 0 00-.502 1.203v4.804c0 .469.189.894.502 1.203a1.699 1.699 0 002.406 0c.309-.309.501-.735.501-1.203v-4.804c0-.465-.192-.894-.501-1.203a1.699 1.699 0 00-2.406 0zm6.166-1.508c-.465 0-.894.189-1.203.502a1.697 1.697 0 00-.501 1.203v4.799a1.714 1.714 0 001.704 1.708 1.712 1.712 0 001.709-1.708v-4.799c0-.47-.193-.894-.502-1.203a1.698 1.698 0 00-1.207-.502zm5.7 3.036l.971.262v-2.945c0-.466-.192-.894-.501-1.203a1.702 1.702 0 00-1.204-.502c-.468 0-.893.193-1.203.502a1.702 1.702 0 00-.501 1.203v2.996a3.236 3.236 0 012.438-.313zm5.937 1.593v-2.923c0-.47-.192-.894-.501-1.203a1.696 1.696 0 00-2.41 0 1.7 1.7 0 00-.502 1.203v2.007l1.367.367 2.046.549z" fill="#FD9627"/><path d="M335.71 297.755h-67.685c-2.783 0-5.049-2.274-5.049-5.067v-60.316c0-2.793 2.266-5.067 5.049-5.067h67.685c2.782 0 5.048 2.274 5.048 5.067v60.316c0 2.793-2.266 5.067-5.048 5.067zm-67.685-69.529c-2.275 0-4.126 1.858-4.126 4.141v60.316c0 2.284 1.851 4.141 4.126 4.141h67.685c2.275 0 4.125-1.857 4.125-4.141v-60.316c0-2.283-1.85-4.141-4.125-4.141h-67.685zm-2.673-14.9h-67.685c-2.782 0-5.048-2.275-5.048-5.067v-60.317c0-2.793 2.266-5.067 5.048-5.067h67.685c2.783 0 5.048 2.274 5.048 5.067v60.317c0 2.792-2.265 5.067-5.048 5.067zm-67.685-69.529c-2.275 0-4.125 1.857-4.125 4.141v60.316c0 2.283 1.85 4.141 4.125 4.141h67.685c2.275 0 4.126-1.858 4.126-4.141v-60.316c0-2.284-1.851-4.141-4.126-4.141h-67.685z" fill="#1C1C1C"/><g clip-path="url(#clip2_1347_1452)" fill="#FE5000"><path d="M231.205 193.064c3.532 0 6.911-.836 10.117-2.381 2.693-1.298 5.192-3.062 7.49-5.171a39.196 39.196 0 004.666-5.13c1.338-1.882 1.442-2.045 1.648-2.375a1.285 1.285 0 000-1.309c-.775-1.189-1.181-1.761-1.648-2.375a39.331 39.331 0 00-4.666-5.13c-2.298-2.11-4.797-3.873-7.49-5.171-3.206-1.545-6.585-2.38-10.117-2.38-3.532 0-6.91.835-10.117 2.38-2.693 1.298-5.192 3.062-7.489 5.171a39.2 39.2 0 00-4.667 5.13 34.62 34.62 0 00-1.215 1.7c-.121.182-.227.345-.432.675a1.28 1.28 0 000 1.309c.775 1.189 1.181 1.761 1.647 2.375a39.277 39.277 0 004.667 5.13c2.297 2.11 4.796 3.873 7.489 5.171 3.207 1.545 6.585 2.381 10.117 2.381zm0-5.096c-5.838 0-10.57-4.753-10.57-10.616 0-5.863 4.732-10.616 10.57-10.616s10.571 4.753 10.571 10.616c0 5.863-4.733 10.616-10.571 10.616z"/><path d="M231.205 171.832c3.036 0 5.497 2.471 5.497 5.52 0 3.049-2.461 5.52-5.497 5.52-3.035 0-5.496-2.471-5.496-5.52 0-.704.568-1.274 1.268-1.274.701 0 1.269.57 1.269 1.274a2.965 2.965 0 002.959 2.972c1.635 0 2.96-1.33 2.96-2.972a2.966 2.966 0 00-2.96-2.973c-.7 0-1.268-.57-1.268-1.274a1.27 1.27 0 011.268-1.273zm-18.181-16.986c.7 0 1.268.57 1.268 1.274 0 .703-.568 1.274-1.268 1.274h-4.651c-.991 0-1.692.703-1.692 1.698v4.671c0 .704-.568 1.274-1.268 1.274-.7 0-1.268-.57-1.268-1.274v-4.671c0-2.402 1.836-4.246 4.228-4.246h4.651zm41.014 0c2.391 0 4.228 1.844 4.228 4.246v4.671c0 .704-.568 1.274-1.269 1.274-.7 0-1.268-.57-1.268-1.274v-4.671c0-.995-.7-1.698-1.691-1.698h-4.651a1.272 1.272 0 01-1.269-1.274c0-.704.568-1.274 1.269-1.274h4.651zm-48.625 34.82c.7 0 1.268.571 1.268 1.274v4.671c0 .995.701 1.699 1.692 1.699h4.651c.7 0 1.268.57 1.268 1.274 0 .703-.568 1.274-1.268 1.274h-4.651c-2.392 0-4.228-1.845-4.228-4.247v-4.671c0-.703.568-1.274 1.268-1.274zm51.584 0c.701 0 1.269.571 1.269 1.274v4.671c0 2.402-1.837 4.247-4.228 4.247h-4.651a1.272 1.272 0 01-1.269-1.274c0-.704.568-1.274 1.269-1.274h4.651c.991 0 1.691-.704 1.691-1.699v-4.671c0-.703.568-1.274 1.268-1.274z"/></g><path d="M270.114 342.357c6.334 0 11.468-5.159 11.468-11.523s-5.134-11.523-11.468-11.523c-6.333 0-11.468 5.159-11.468 11.523s5.135 11.523 11.468 11.523z" fill="#FD9627"/><path d="M268.698 337.578a.686.686 0 01-.573-.311l-4.536-6.845a.696.696 0 01.194-.963.69.69 0 01.96.194l3.964 5.984 7.204-10.648a.689.689 0 01.959-.185.695.695 0 01.185.963l-7.785 11.505a.692.692 0 01-.572.306z" fill="#fff"/><path d="M270.114 404.424c6.334 0 11.468-5.159 11.468-11.523s-5.134-11.523-11.468-11.523c-6.333 0-11.468 5.159-11.468 11.523s5.135 11.523 11.468 11.523z" fill="#FD9627"/><path d="M268.698 399.645a.686.686 0 01-.573-.311l-4.536-6.845a.696.696 0 01.194-.963.691.691 0 01.96.194l3.964 5.984 7.204-10.648a.692.692 0 011.144.778l-7.785 11.505a.692.692 0 01-.572.306z" fill="#fff"/><path d="M270.114 373.393c6.334 0 11.468-5.159 11.468-11.523s-5.134-11.524-11.468-11.524c-6.333 0-11.468 5.16-11.468 11.524 0 6.364 5.135 11.523 11.468 11.523z" fill="#FD9627"/><path d="M268.698 368.613a.688.688 0 01-.573-.31l-4.536-6.845a.697.697 0 01.194-.964.69.69 0 01.96.195l3.964 5.984 7.204-10.648a.688.688 0 01.959-.186.696.696 0 01.185.964l-7.785 11.505a.691.691 0 01-.572.305z" fill="#fff"/><path d="M346.636 334.553h-55.584a.464.464 0 010-.926h55.584a.464.464 0 010 .926zm0-7.848h-55.584a.464.464 0 010-.926h55.584a.464.464 0 010 .926zm0 63.028h-55.584a.464.464 0 010-.926h55.584a.464.464 0 010 .926zm.55 6.888h-56.134a.465.465 0 010-.927h56.134a.464.464 0 010 .927zm-.55-37.923h-55.584a.465.465 0 010-.927h55.584a.464.464 0 010 .927zm0 6.887h-55.584a.464.464 0 010-.927h55.584a.465.465 0 010 .927z" fill="#1C1C1C"/><path d="M557.711 202.357H372.246l21.339-148.241H577.98l-20.269 148.241z" fill="#EDEDED"/><path d="M548.453 208.146H366.206a.4.4 0 01-.395-.451L385.572 62.59a.4.4 0 01.396-.347h182.247a.4.4 0 01.395.452l-19.762 145.104a.4.4 0 01-.395.347zm-181.792-.799h181.444l19.654-144.305H386.315l-19.654 144.305z" fill="#1C1C1C"/><path d="M447.065 127.423h65.17l.643-5.569h-65.166l-.647 5.569z" fill="#fff"/><path d="M512.514 80.074h44.706l.647-5.57h-44.706l-.647 5.57z" fill="#FE5000"/><path d="M386.359 151.1h79.618l.646-5.574h-79.621l-.643 5.574zm101.674 0h38.813l.643-5.574H488.68l-.647 5.574z" fill="#fff"/><path d="M469.861 151.1h13.905l.647-5.574h-13.909l-.643 5.574z" fill="#FE5000"/><path d="M512.858 186.611h30.121l.643-5.57h-30.118l-.646 5.57zm-116.099 0h61.924l.642-5.57h-61.92l-.646 5.57z" fill="#fff"/><path d="M463.505 186.611h43.644l.642-5.57h-43.639l-.647 5.57zm-82.336 0l.643-5.569h10.839l-.647 5.569h-10.835zm117.456-47.349h13.015l.647-5.57h-13.019l-.643 5.57z" fill="#FE5000"/><path d="M449.712 139.262h44.717l.647-5.57h-44.721l-.643 5.57z" fill="#fff"/><path d="M412.284 139.262h32.721l.647-5.57h-32.725l-.643 5.57z" fill="#FE5000"/><path d="M442.877 91.912h87.115l.647-5.57-87.115-.003-.647 5.573zm-51.145 0h46.391l.646-5.573h-46.39l-.647 5.573z" fill="#fff"/><path d="M534.651 91.912h20.792l.647-5.57h-20.796l-.643 5.57zm-9.217 11.814h15.182l.647-5.573h-15.182l-.647 5.573zm-130.24.048h26.716l.647-5.57-26.716-.003-.647 5.573z" fill="#FE5000"/><path d="M426.617 103.774h94.078l.646-5.57H427.26l-.643 5.57z" fill="#fff"/><path d="M498.278 115.589h33.292l.647-5.574h-33.292l-.647 5.574zm-19.602 0h14.999l.646-5.574h-14.998l-.647 5.574zm21.586 59.144h31.415l.647-5.57h-31.415l-.647 5.57z" fill="#FE5000"/><path d="M449.868 174.817h46.438l.646-5.574h-46.438l-.646 5.574z" fill="#fff"/><path d="M464.304 162.939h41.879l.647-5.574h-41.879l-.647 5.574zm45.867 0h14.999l.646-5.574h-14.999l-.646 5.574z" fill="#FE5000"/></g><path d="M527.919 178.958H326.478v83.133h201.441v-83.133z" fill="#EDA506"/><path d="M442.056 136.031l8.902 25.117 6.118 1.15s-9.34 19.569-25.076 16.29c-15.737-3.279-12.278-16.29-12.278-16.29l3.33-.261c1.992-.157 3.359-2.008 2.859-3.879l-3.742-13.992s15.248-11.864 19.883-8.139l.004.004z" fill="#fff"/><path d="M435.496 179.356a17.54 17.54 0 01-3.584-.374c-5.155-1.074-8.839-3.291-10.948-6.586-3.042-4.751-1.7-9.977-1.642-10.194a.42.42 0 01.371-.302l3.33-.262a2.822 2.822 0 002.059-1.126 2.628 2.628 0 00.429-2.245l-3.743-13.992a.401.401 0 01.142-.415c.634-.49 15.57-12.025 20.413-8.134a.406.406 0 01.129.181l8.822 24.895 5.881 1.106a.417.417 0 01.292.213.386.386 0 01.008.35c-.088.185-8.231 16.889-21.955 16.889l-.004-.004zm-15.432-16.68c-.225 1.123-.863 5.444 1.613 9.306 1.988 3.102 5.488 5.19 10.41 6.215 13.882 2.893 22.83-12.684 24.372-15.601l-5.585-1.05a.42.42 0 01-.316-.266l-8.861-25.007c-3.621-2.647-14.761 4.743-19.058 8.046l3.676 13.739a3.403 3.403 0 01-.558 2.917 3.669 3.669 0 01-2.672 1.464l-3.021.237z" fill="#000"/><path d="M438.334 106.176c3.609 1.042 6.656 3.749 8.031 7.133.704 1.738.988 3.612 1.654 5.363.671 1.75 1.859 3.463 3.68 4.095.913.318 1.905.334 2.843.563 1.883.459 3.55 1.875 4.021 3.693.467 1.819-.441 3.951-2.213 4.728.659 1.573.309 3.496-.867 4.759-1.175 1.263-3.117 1.81-4.809 1.348-.062 3.653-2.821 6.891-6.205 8.533-3.384 1.641-7.293 1.931-11.078 1.842-7.168-.165-14.377-1.613-20.729-4.832-1.642-.832-3.25-1.798-4.451-3.162-1.2-1.364-1.958-3.178-1.675-4.944-2.53-1.553-5.009-3.379-6.41-5.938-1.396-2.559-1.425-6.007.646-8.095 1.676-1.689 4.33-2.192 6.018-3.866 1.467-1.452 1.971-3.54 2.726-5.435.946-2.37 2.417-4.61 4.551-6.095 2.604-1.814 6.097-2.189 9.131-1.291 1.65.486 2.738 1.412 4.126 2.309 1.341.869 3.042-.523 4.471-.857 2.142-.499 4.422-.467 6.535.145l.004.004z" fill="#1C1C1C"/><path d="M436.392 143.727c-1.205 2.809-3.026 5.42-5.518 7.278-2.492 1.859-5.697 2.913-8.827 2.563-5.238-.587-9.335-4.977-11.006-9.804-1.671-4.824-1.384-10.05-1.03-15.127 0 0 2.251-7.628 8.123-10.142 1.117 11.091 20.888 2.912 15.662 18.514 0 0 3.613-4.232 5.901-3.991 2.471.257 4.551 2.414 4.684 4.812.138 2.397-1.55 4.735-3.867 5.608-1.309.491-2.576.821-4.118.289h-.004z" fill="#fff"/><path d="M423.248 154.038a11.8 11.8 0 01-1.251-.068c-4.971-.555-9.427-4.51-11.352-10.074-1.759-5.081-1.367-10.738-1.05-15.284a.28.28 0 01.017-.084c.095-.318 2.371-7.837 8.351-10.4a.435.435 0 01.379.02.4.4 0 01.205.31c.466 4.643 4.309 5.685 8.376 6.791 2.984.813 6.072 1.649 7.435 4.108.846 1.528.955 3.54.317 6.115 1.313-1.288 3.417-3.026 5.064-2.853 2.642.278 4.909 2.603 5.055 5.19.141 2.527-1.596 5.049-4.134 6.007-1.13.422-2.451.832-4.035.41-1.325 2.957-3.221 5.407-5.497 7.101-2.354 1.754-5.167 2.711-7.88 2.711zm-12.824-25.329c-.308 4.465-.687 10.013 1.013 14.93 1.496 4.316 5.372 8.939 10.66 9.53 2.872.322 5.977-.583 8.527-2.482 2.251-1.674 4.109-4.136 5.389-7.113a.421.421 0 01.525-.225c1.333.458 2.455.233 3.826-.286 2.213-.833 3.73-3.025 3.605-5.21-.125-2.208-2.059-4.196-4.314-4.433-1.692-.173-4.572 2.715-5.534 3.846a.426.426 0 01-.521.096.393.393 0 01-.196-.474c1.063-3.174 1.138-5.512.229-7.149-1.196-2.157-3.98-2.913-6.926-3.714-3.818-1.038-8.123-2.208-8.906-6.923-5.043 2.518-7.189 9.044-7.368 9.607h-.009z" fill="#000"/><path d="M436.9 140.875a.423.423 0 01-.321-.145.398.398 0 01.05-.568 10.815 10.815 0 002.309-2.566.423.423 0 01.575-.129.395.395 0 01.134.555 11.608 11.608 0 01-2.48 2.764.424.424 0 01-.267.093v-.004z" fill="#000"/><path d="M386.023 172.645c4.655-6.071 11.769-9.929 19.563-10.621a422.585 422.585 0 0116.207-1.122c.342 1.078.821 2.12 1.438 3.105 1.8 2.857 4.613 5.057 7.756 6.421 3.142 1.368 6.655 1.984 10.089 1.585 3.359-.39 6.56-1.774 8.881-4.188 1.892-1.967 4.164-4.349 4.747-6.931 5.63.309 10.065.756 15.349 1.556 10.085 1.525 18.771 7.419 24.276 15.719 12.015 18.1 25.376 37.205 25.376 59.248 0 25.06-62.321 22.883-62.321 22.883h-60.763l-38.853-31.867s12.094-34.719 28.255-55.792v.004z" fill="#FE5000"/><path d="M462.922 256.229c.459 2.989-5.538 4.075-5.538 4.075h-18.592l-27.684-3.436s-2.163-34.433 36.978-30.273c0 0 11.811 9.916 14.836 29.634z" fill="#fff"/><path d="M457.384 260.706h-18.646l-27.684-3.435a.407.407 0 01-.363-.374c-.008-.145-.796-14.608 9.085-23.688 6.489-5.963 16.028-8.32 28.356-7.013a.404.404 0 01.367.443.414.414 0 01-.459.354c-12.069-1.283-21.383 1.002-27.685 6.791-8.776 8.062-8.893 20.542-8.843 22.726l27.306 3.388h18.562a.41.41 0 01.416.402.41.41 0 01-.416.402l.004.004z" fill="#000"/><path d="M431.496 257.403a.412.412 0 01-.413-.346c-.313-2.068.183-4.357 1.396-6.445.996-1.714 2.463-3.323 4.48-4.92.392-.31.85-.656 1.384-.881a.42.42 0 01.55.209.394.394 0 01-.217.531c-.433.185-.825.479-1.188.769-1.937 1.532-3.338 3.065-4.284 4.691-1.125 1.931-1.588 4.039-1.3 5.934a.403.403 0 01-.354.454c-.021 0-.042.004-.063.004h.009zm-8.948-.494h-.059a.404.404 0 01-.354-.455c.342-2.325.834-5.049 1.896-7.616 1.117-2.699 2.763-4.912 4.764-6.392a.426.426 0 01.583.072.393.393 0 01-.075.563c-1.884 1.396-3.438 3.488-4.497 6.055-1.029 2.49-1.508 5.154-1.842 7.431a.412.412 0 01-.412.346l-.004-.004zm-7.168-.001a.409.409 0 01-.413-.354c-1.25-10.102 5.63-16.41 5.701-16.474a.426.426 0 01.588.02.39.39 0 01-.021.567c-.067.061-6.639 6.107-5.439 15.791a.402.402 0 01-.362.446h-.05l-.004.004z" fill="#000"/><path d="M343.502 262.09h100.983c.6 0 1.196-.148 1.688-.474 1.154-.769 1.555-2.141 1.1-3.315-1.192-2.41-3.65-3.259-7.289-3.259H336.876l1.337 3.512c.826 2.128 2.934 3.54 5.289 3.54v-.004z" fill="#1C1C1C"/><path d="M338.564 259.616l-18.054-43.735c-.367-.893-.425-1.895-.071-2.792.584-1.484 2.038-2.418 3.618-2.418h62.062c3.739 0 7.073 2.273 8.323 5.677l16.782 45.743h-68.88c-1.667 0-3.163-.982-3.78-2.475zm156.699-31.996h-.009l-45.151-.828a.41.41 0 01-.408-.411.41.41 0 01.417-.394h.008l45.151.829a.41.41 0 01.408.41.409.409 0 01-.416.394zm-15.079-2.473a.418.418 0 01-.4-.286 71.44 71.44 0 00-6.676-15.042c-.775-1.316-1.5-1.919-2.276-1.895a.407.407 0 01-.429-.391.407.407 0 01.404-.414c1.48-.04 2.43 1.291 3.026 2.301a71.84 71.84 0 016.747 15.208.4.4 0 01-.279.502.389.389 0 01-.121.017h.004z" fill="#1C1C1C"/><path d="M273.829 114.164h77.462c2.9 0 5.25 2.283 5.25 5.088v66.656c0 2.81-2.356 5.088-5.25 5.088h-77.462c-2.9 0-5.25-2.283-5.25-5.088v-66.656c0-2.81 2.355-5.088 5.25-5.088z" fill="#fff"/><path d="M351.291 191.513h-77.462c-3.185 0-5.778-2.514-5.778-5.6v-66.656c0-3.087 2.593-5.6 5.778-5.6h77.462c3.185 0 5.778 2.513 5.778 5.6v66.656c0 3.086-2.593 5.6-5.778 5.6zm-77.462-76.837c-2.604 0-4.722 2.052-4.722 4.576v66.656c0 2.523 2.118 4.576 4.722 4.576h77.462c2.604 0 4.722-2.053 4.722-4.576v-66.656c0-2.524-2.118-4.576-4.722-4.576h-77.462z" fill="#1C1C1C"/><path d="M321.916 156.326a1.107 1.107 0 00-.702.094 1.145 1.145 0 00-.556 1.486l-.008.011 2.627 6.346a13.403 13.403 0 005.419-6.807l-6.768-1.144-.012.014zm-10.532.899a1.144 1.144 0 00-1.325-.871l-.011-.014-6.71 1.139a13.46 13.46 0 005.403 6.76l2.6-6.283-.021-.025c.096-.222.119-.47.064-.706zm5.62 2.464a1.146 1.146 0 00-2.02.003h-.005l-3.3 5.966a13.44 13.44 0 007.335.378c.451-.103.892-.226 1.322-.37l-3.307-5.977h-.025zm10.445-13.86l-5.077 4.544.003.015a1.144 1.144 0 00-.074 1.656c.143.15.324.258.524.313l.006.028 6.576 1.894a13.636 13.636 0 00-1.958-8.449v-.001zm-9.432.509a1.15 1.15 0 001.822.875l.02.009 5.555-3.939a13.5 13.5 0 00-7.789-3.755l.386 6.808.006.002zm-5.883.9a1.15 1.15 0 001.819-.877l.028-.014.386-6.819a13.84 13.84 0 00-1.386.239 13.383 13.383 0 00-6.449 3.514l5.592 3.963.01-.006zm-2.98 5.153a1.15 1.15 0 00.787-1.461 1.146 1.146 0 00-.337-.509l.005-.027-5.104-4.566a13.38 13.38 0 00-1.9 8.473l6.543-1.888.006-.022zm4.958 2.005l1.883.906 1.878-.904.466-2.027-1.3-1.625h-2.091l-1.303 1.623.467 2.027z" fill="#357DED"/><path d="M347.126 158.39l-5.366-23.308a4.19 4.19 0 00-2.246-2.795l-21.721-10.37a4.181 4.181 0 00-3.605 0l-21.717 10.376a4.178 4.178 0 00-2.247 2.794l-5.357 23.307a4.095 4.095 0 00-.001 1.79 4.085 4.085 0 00.565 1.369c.073.112.151.221.235.327l15.032 18.689c.066.082.138.156.21.231.236.252.502.472.793.657a4.26 4.26 0 001.188.517c.344.094.699.143 1.056.146h.234l23.871-.006a4.126 4.126 0 001.047-.142c.144-.038.286-.083.426-.136.108-.042.217-.083.321-.133.157-.076.309-.16.456-.254.378-.237.715-.536.997-.882l.458-.57 14.569-18.123a4.195 4.195 0 00.803-1.697c.131-.589.131-1.2-.001-1.789v.002zm-22.53 9.065c.061.179.134.354.217.524a1.022 1.022 0 00-.101.767c.316.724.702 1.415 1.153 2.064.252.332.485.678.697 1.036.052.097.12.247.17.35a1.313 1.313 0 01.129 1.05 1.304 1.304 0 01-2.195.521 1.29 1.29 0 01-.284-.46c-.05-.102-.119-.237-.161-.333-.148-.39-.274-.788-.377-1.192a12.142 12.142 0 00-.892-2.186 1.028 1.028 0 00-.664-.402c-.041-.072-.195-.354-.278-.5a16.824 16.824 0 01-11.996-.031l-.294.533a1.06 1.06 0 00-.56.273 9.13 9.13 0 00-1.007 2.336c-.102.404-.227.801-.375 1.191-.041.095-.111.229-.161.33v.003l-.002.003a1.312 1.312 0 01-.73.767 1.313 1.313 0 01-1.059-.027 1.293 1.293 0 01-.43-.329 1.295 1.295 0 01-.305-1.014c.023-.181.083-.355.178-.511.048-.103.114-.253.166-.35.212-.359.444-.706.697-1.039.458-.665.852-1.374 1.176-2.114a1.29 1.29 0 00-.116-.736l.237-.566a16.915 16.915 0 01-7.496-9.36l-.567.097a1.45 1.45 0 00-.748-.264c-.775.149-1.533.372-2.265.667-.38.171-.77.32-1.167.447-.094.026-.229.052-.336.075-.009.003-.016.007-.025.009l-.02.002a1.3 1.3 0 01-1.05-.104 1.313 1.313 0 01-.63-.846 1.305 1.305 0 011.103-1.583l.019-.005.011-.003c.109-.025.248-.061.347-.081.414-.057.83-.091 1.248-.1.787-.051 1.567-.18 2.329-.383.226-.143.417-.336.559-.563l.544-.159a16.824 16.824 0 012.653-11.727l-.417-.371a1.433 1.433 0 00-.261-.75 12.139 12.139 0 00-1.933-1.359 10.752 10.752 0 01-1.078-.63c-.079-.059-.183-.147-.269-.217l-.019-.013a1.379 1.379 0 01-.32-1.917 1.256 1.256 0 011.036-.458c.33.014.648.134.906.342.088.069.209.162.288.229.302.287.588.59.856.909a12.087 12.087 0 001.753 1.584c.237.125.514.152.772.075.155.112.311.224.468.333a16.722 16.722 0 018.494-4.852c.774-.176 1.56-.296 2.35-.362l.031-.549c.202-.18.348-.413.422-.673.029-.789-.02-1.578-.145-2.357a10.995 10.995 0 01-.177-1.237c-.003-.094.002-.225.003-.333l-.003-.036a1.313 1.313 0 01.33-1.008 1.316 1.316 0 01.969-.431 1.304 1.304 0 01.97.43 1.315 1.315 0 01.331 1.008c0 .114.007.265.003.369a10.95 10.95 0 01-.179 1.236c-.125.78-.174 1.57-.147 2.358.051.264.204.497.425.65.004.094.02.408.031.581a17.03 17.03 0 0110.79 5.213l.495-.353c.265.045.539.016.788-.086a12.146 12.146 0 001.753-1.585c.268-.32.555-.623.858-.909.08-.068.2-.16.289-.23a1.3 1.3 0 01.458-.292 1.293 1.293 0 011.061.063 1.313 1.313 0 01.687 1.375 1.317 1.317 0 01-.587.887c-.087.07-.202.168-.286.231-.348.23-.708.441-1.08.63-.687.389-1.335.844-1.934 1.358a1.033 1.033 0 00-.244.736c-.072.067-.326.292-.461.414a16.885 16.885 0 012.708 11.699l.525.152c.131.237.325.432.561.564.762.204 1.543.332 2.331.384.417.009.833.043 1.246.1.109.02.267.063.379.089a1.315 1.315 0 01.901.548c.103.15.175.319.21.497a1.317 1.317 0 01-.64 1.385 1.311 1.311 0 01-1.05.103l-.018-.003c-.009-.002-.017-.007-.026-.009-.107-.023-.242-.047-.336-.071a11.047 11.047 0 01-1.166-.45 12.107 12.107 0 00-2.267-.667 1.024 1.024 0 00-.728.27c-.185-.035-.37-.068-.556-.098a16.911 16.911 0 01-7.493 9.427z" fill="#357DED"/><defs><clipPath id="clip0_1347_1452"><path fill="#fff" transform="translate(9.63 54.117)" d="M0 0h568.274v378.849H0z"/></clipPath><clipPath id="clip1_1347_1452"><path fill="#fff" transform="translate(173.837 255.511)" d="M0 0h54.121v54.121H0z"/></clipPath><clipPath id="clip2_1347_1452"><path fill="#fff" transform="translate(204.145 150.516)" d="M0 0h54.121v54.121H0z"/></clipPath></defs></svg>