<svg id="Layer_1" xmlns="http://www.w3.org/2000/svg" version="1.1" viewBox="0 0 145.2 34"><defs><style>.st0,.st1{fill:#000}.st1{fill-rule:evenodd}</style></defs><g id="Layer_11" data-name="Layer_1"><path class="st1" d="m57.4 13.6-5.7-5.3h-1.4v8.9h2v-5.6l6 5.6h1.2V8.3h-2v5.3h-.1zM39.5 11.9h-3.1V8.2h-2.7v8.9h2.7v-3.8h3.1v3.8h2.7V8.2h-2.7v3.7zM29.1 8.2c-2.92-.07-5.71 1.76-5.5 4.8-.25 4.12 5.37 5.08 8.2 4v-1.4c-2.26.72-5.52.65-5.4-2.7-.4-3.08 3.25-3.92 5.4-3.2V8.5c-.78-.16-1.69-.42-2.7-.2v-.1zM64.5 8.3l-4.1 8.9h2.2l.9-2.1h4l.9 2.1h2.7l-4.2-8.9h-2.4zm-.4 5.4 1.4-3.3 1.5 3.3h-2.9z"/><path class="st0" d="M47.6 8.3h-2.7v8.9h2.7V8.3z"/><path class="st1" d="M105.5 13.3h3.5V12h-3.5V9.6h4.6V8.3h-7.3v8.9h7.6v-1.3h-4.9v-2.6zM117.1 8.2c-2.92-.07-5.71 1.76-5.5 4.8-.25 4.12 5.37 5.08 8.2 4v-1.4c-2.23.67-5.59.77-5.5-2.7-.39-3.13 3.06-3.91 5.3-3.2V8.5c-.79-.14-1.47-.43-2.6-.2l.1-.1z"/><path class="st1" d="M126 8.2c-6.6-.49-6.71 9.49-.2 9.1 6.54.55 6.61-9.57 0-9.1h.2zm2.1 4.7c-.07 1.91-.27 3.05-2.1 3.1-.7 0-1.6-.2-1.8-.7-.49-.89-.58-4.34.1-5.2.5-.97 3.12-.97 3.5.1.23.49.44 1.66.4 2.7h-.1zM75.4 9.6H78v7.6h2.7V9.6h2.6V8.3h-7.9v1.3z"/><path class="st1" d="m138.8 14.7-4.5-6.5h-2v8.9h1.9V12l3.5 5.1h1.4l3.7-5.1v5.1h2.4V8.2h-1.7l-4.6 6.5h-.1zM87.3 13.3h3.6V12h-3.6V9.6h4.6V8.3h-7.3v8.9h7.6v-1.3h-4.9v-2.6zM96.6 8.3h-2.7v8.9h7.2v-1.3h-4.5V8.3z"/><path class="st0" d="M24.9 26.4h-1.3l2.2-6h1.5l2.1 6H28l-.4-1.2h-2.2l-.5 1.2zm.8-2.2h1.6l-.8-2.3-.8 2.3zM36 26.4h-1.2v-5.1l-1.1 5.1h-1.3l-1.1-5.1v5.1h-1.2v-6H32l1.1 4.7 1.1-4.7H36v6zM41.7 21.5h-3.2v1.2h3v1.1h-3v1.6h3.4v1.1h-4.6v-6h4.5v1h-.1zM42.8 20.4h3.1c2.28.09 2.42 2.41 1 3.1.5.2.8.4.8 1.6s0 1.1.2 1.2v.2h-1.4c-.46-2.06.33-2.56-2.5-2.4v2.3h-1.3l.2-5.9-.1-.1zm2.8 2.7c1.18.22 1.48-1.94.1-1.7h-1.6V23h1.4l.1.1zM50.1 26.4h-1.3v-6h1.3v6zM55.2 22.4c-.22-1.57-3.16-1.45-2.8 1.1 0 1.7.4 2 1.5 2s1.2-.4 1.3-1.2h1.3c-.43 3.23-5.75 2.88-5.4-1-.26-3.88 4.93-4.07 5.4-1.1l-1.3.2zM58.3 26.4H57l2.2-6h1.5l2.1 6h-1.4l-.4-1.2h-2.2l-.5 1.2zm.7-2.2h1.6l-.8-2.3-.8 2.3zM64.4 24.6c-.26 1.07 2.8 1.53 2.6.2 0-.6-.5-.6-1.1-.8-1.11-.4-2.52-.38-2.5-2 0-1.3.4-1.9 2.4-1.9s2.4 1.2 2.4 1.9h-1.3c0-.2-.2-.9-1.3-.9s-1 .2-1 .7.4.5.6.6c1.13.43 3.15.3 3.1 2 0 1.8-1.9 1.9-2.4 1.9-2.2 0-2.6-1.2-2.6-2h1.2l-.1.3zM5.8 14.9c.38-6.14 5.32-10.34 7.4-4.4l-.8.2c-1.91-1.59-2.56 2.23-2.9 3.8.2 0 .5 0 .7-.2 4.63-1.07 8.63-4.49 4-5.8l-.3-1.1c11.19.96 3.95 9.44-4.5 10.3-.11 5.67 3.01 7.86 3.6 1.8l1.4-.4c-1.22 10.15-8.19 8.72-8.7-1.2-8.32-.45-6.95-6.65.6-9.3l.2.8c-4.17 1.57-5.29 5.1-.7 5.5z"/></g></svg>