<?xml version="1.0" encoding="UTF-8"?>
<svg xmlns="http://www.w3.org/2000/svg" width="40" height="41" viewBox="0 0 40 41" fill="none">
  <g clip-path="url(#clip0_21_167)">
    <path d="M31.6666 17.1666H28.8333C28.8333 22.1666 24.5999 25.6666 19.9999 25.6666C15.3999 25.6666 11.1666 22.1666 11.1666 17.1666H8.33325C8.33325 22.85 12.8666 27.55 18.3333 28.3666V33.8333H21.6666V28.3666C27.1333 27.55 31.6666 22.85 31.6666 17.1666ZM24.9999 40.5H28.3333V37.1666H24.9999M18.3333 40.5H21.6666V37.1666H18.3333M19.9999 22.1666C21.326 22.1666 22.5978 21.6398 23.5355 20.7022C24.4731 19.7645 24.9999 18.4927 24.9999 17.1666V7.16663C24.9999 5.84054 24.4731 4.56877 23.5355 3.63109C22.5978 2.69341 21.326 2.16663 19.9999 2.16663C18.6738 2.16663 17.4021 2.69341 16.4644 3.63109C15.5267 4.56877 14.9999 5.84054 14.9999 7.16663V17.1666C14.9999 18.4927 15.5267 19.7645 16.4644 20.7022C17.4021 21.6398 18.6738 22.1666 19.9999 22.1666ZM11.6666 40.5H14.9999V37.1666H11.6666V40.5Z" fill="#764294"></path>
  </g>
  <defs fill="#000000">
    <clipPath id="clip0_21_167" fill="#000000">
      <rect width="40" height="40" fill="white" transform="translate(0 0.5)"></rect>
    </clipPath>
  </defs>
</svg>
