<svg width="1600" height="676" viewBox="0 0 1600 676" fill="none" xmlns="http://www.w3.org/2000/svg">
<g style="mix-blend-mode:overlay" clip-path="url(#clip0_961_3765)">
<rect width="1600" height="676" fill="url(#paint0_linear_961_3765)"/>
<path d="M68.6107 552.396H6V606.982H68.6107V552.396Z" fill="white" fill-opacity="0.5"/>
<path d="M68.6107 621.464H6V676.051H68.6107V621.464Z" fill="white" fill-opacity="0.5"/>
<path d="M163.958 276.173H101.348V330.759H163.958V276.173Z" fill="white" fill-opacity="0.5"/>
<path d="M163.958 345.241H101.348V399.827H163.958V345.241Z" fill="white" fill-opacity="0.5"/>
<path d="M163.958 414.31H101.348V468.896H163.958V414.31Z" fill="white" fill-opacity="0.5"/>
<path d="M163.958 483.327H101.348V537.914H163.958V483.327Z" fill="white" fill-opacity="0.5"/>
<path d="M163.958 552.396H101.348V606.982H163.958V552.396Z" fill="white" fill-opacity="0.5"/>
<path d="M163.958 621.464H101.348V676.051H163.958V621.464Z" fill="white" fill-opacity="0.5"/>
<path d="M259.272 138.086H196.661V192.673H259.272V138.086Z" fill="white" fill-opacity="0.5"/>
<path d="M259.272 207.155H196.661V261.741H259.272V207.155Z" fill="white" fill-opacity="0.5"/>
<path d="M259.272 276.173H196.661V330.759H259.272V276.173Z" fill="white" fill-opacity="0.5"/>
<path d="M259.272 345.241H196.661V399.827H259.272V345.241Z" fill="white" fill-opacity="0.5"/>
<path d="M259.272 414.31H196.661V468.896H259.272V414.31Z" fill="white" fill-opacity="0.5"/>
<path d="M259.272 483.327H196.661V537.914H259.272V483.327Z" fill="white" fill-opacity="0.5"/>
<path d="M259.272 552.396H196.661V606.982H259.272V552.396Z" fill="white" fill-opacity="0.5"/>
<path d="M259.272 621.464H196.661V676.051H259.272V621.464Z" fill="white" fill-opacity="0.5"/>
<path d="M354.619 552.396H292.009V606.982H354.619V552.396Z" fill="white" fill-opacity="0.5"/>
<path d="M354.619 621.464H292.009V676.051H354.619V621.464Z" fill="white" fill-opacity="0.5"/>
<path d="M449.966 69.0684H387.355V123.655H449.966V69.0684Z" fill="white" fill-opacity="0.5"/>
<path d="M449.966 138.086H387.355V192.673H449.966V138.086Z" fill="white" fill-opacity="0.5"/>
<path d="M449.966 207.155H387.355V261.741H449.966V207.155Z" fill="white" fill-opacity="0.5"/>
<path d="M449.966 276.173H387.355V330.759H449.966V276.173Z" fill="white" fill-opacity="0.5"/>
<path d="M449.966 345.241H387.355V399.827H449.966V345.241Z" fill="white" fill-opacity="0.5"/>
<path d="M449.966 414.31H387.355V468.896H449.966V414.31Z" fill="white" fill-opacity="0.5"/>
<path d="M449.966 483.327H387.355V537.914H449.966V483.327Z" fill="white" fill-opacity="0.5"/>
<path d="M449.966 552.396H387.355V606.982H449.966V552.396Z" fill="white" fill-opacity="0.5"/>
<path d="M449.966 621.464H387.355V676.051H449.966V621.464Z" fill="white" fill-opacity="0.5"/>
<path d="M545.314 207.155H482.703V261.741H545.314V207.155Z" fill="white" fill-opacity="0.5"/>
<path d="M545.314 276.173H482.703V330.759H545.314V276.173Z" fill="white" fill-opacity="0.5"/>
<path d="M545.314 345.241H482.703V399.827H545.314V345.241Z" fill="white" fill-opacity="0.5"/>
<path d="M545.314 414.31H482.703V468.896H545.314V414.31Z" fill="white" fill-opacity="0.5"/>
<path d="M545.314 483.327H482.703V537.914H545.314V483.327Z" fill="white" fill-opacity="0.5"/>
<path d="M545.314 552.396H482.703V606.982H545.314V552.396Z" fill="white" fill-opacity="0.5"/>
<path d="M545.314 621.464H482.703V676.051H545.314V621.464Z" fill="white" fill-opacity="0.5"/>
<path d="M640.627 621.464H578.017V676.051H640.627V621.464Z" fill="white" fill-opacity="0.5"/>
<path d="M640.627 552.396H578.017V606.982H640.627V552.396Z" fill="white" fill-opacity="0.5"/>
<path d="M640.627 483.327H578.017V537.914H640.627V483.327Z" fill="white" fill-opacity="0.5"/>
<path d="M735.975 0H673.364V54.5864H735.975V0Z" fill="white" fill-opacity="0.5"/>
<path d="M735.975 69.0684H673.364V123.655H735.975V69.0684Z" fill="white" fill-opacity="0.5"/>
<path d="M735.975 138.086H673.364V192.673H735.975V138.086Z" fill="white" fill-opacity="0.5"/>
<path d="M735.975 207.155H673.364V261.741H735.975V207.155Z" fill="white" fill-opacity="0.5"/>
<path d="M735.975 276.173H673.364V330.759H735.975V276.173Z" fill="white" fill-opacity="0.5"/>
<path d="M735.975 345.241H673.364V399.827H735.975V345.241Z" fill="white" fill-opacity="0.5"/>
<path d="M735.975 414.31H673.364V468.896H735.975V414.31Z" fill="white" fill-opacity="0.5"/>
<path d="M735.975 483.327H673.364V537.914H735.975V483.327Z" fill="white" fill-opacity="0.5"/>
<path d="M735.975 552.396H673.364V606.982H735.975V552.396Z" fill="white" fill-opacity="0.5"/>
<path d="M735.975 621.464H673.364V676.051H735.975V621.464Z" fill="white" fill-opacity="0.5"/>
<path d="M831.323 483.327H768.712V537.914H831.323V483.327Z" fill="white" fill-opacity="0.5"/>
<path d="M831.323 414.31H768.712V468.896H831.323V414.31Z" fill="white" fill-opacity="0.5"/>
<path d="M831.323 552.396H768.712V606.982H831.323V552.396Z" fill="white" fill-opacity="0.5"/>
<path d="M831.323 621.464H768.712V676.051H831.323V621.464Z" fill="white" fill-opacity="0.5"/>
<path d="M926.669 207.155H864.059V261.741H926.669V207.155Z" fill="white" fill-opacity="0.5"/>
<path d="M926.669 276.173H864.059V330.759H926.669V276.173Z" fill="white" fill-opacity="0.5"/>
<path d="M926.669 345.241H864.059V399.827H926.669V345.241Z" fill="white" fill-opacity="0.5"/>
<path d="M926.669 414.31H864.059V468.896H926.669V414.31Z" fill="white" fill-opacity="0.5"/>
<path d="M926.669 483.327H864.059V537.914H926.669V483.327Z" fill="white" fill-opacity="0.5"/>
<path d="M926.669 552.396H864.059V606.982H926.669V552.396Z" fill="white" fill-opacity="0.5"/>
<path d="M926.669 621.464H864.059V676.051H926.669V621.464Z" fill="white" fill-opacity="0.5"/>
<path d="M1021.98 0H959.373V54.5864H1021.98V0Z" fill="white" fill-opacity="0.5"/>
<path d="M1021.98 69.0684H959.373V123.655H1021.98V69.0684Z" fill="white" fill-opacity="0.5"/>
<path d="M1021.98 138.086H959.373V192.673H1021.98V138.086Z" fill="white" fill-opacity="0.5"/>
<path d="M1021.98 207.155H959.373V261.741H1021.98V207.155Z" fill="white" fill-opacity="0.5"/>
<path d="M1021.98 276.173H959.373V330.759H1021.98V276.173Z" fill="white" fill-opacity="0.5"/>
<path d="M1021.98 345.241H959.373V399.827H1021.98V345.241Z" fill="white" fill-opacity="0.5"/>
<path d="M1021.98 414.31H959.373V468.896H1021.98V414.31Z" fill="white" fill-opacity="0.5"/>
<path d="M1021.98 483.327H959.373V537.914H1021.98V483.327Z" fill="white" fill-opacity="0.5"/>
<path d="M1021.98 552.396H959.373V606.982H1021.98V552.396Z" fill="white" fill-opacity="0.5"/>
<path d="M1021.98 621.464H959.373V676.051H1021.98V621.464Z" fill="white" fill-opacity="0.5"/>
<path d="M1117.33 621.464H1054.72V676.051H1117.33V621.464Z" fill="white" fill-opacity="0.5"/>
<path d="M1212.68 552.396H1150.07V606.982H1212.68V552.396Z" fill="white" fill-opacity="0.5"/>
<path d="M1212.68 483.327H1150.07V537.914H1212.68V483.327Z" fill="white" fill-opacity="0.5"/>
<path d="M1117.33 552.396H1054.72V606.982H1117.33V552.396Z" fill="white" fill-opacity="0.5"/>
<path d="M1212.68 621.464H1150.07V676.051H1212.68V621.464Z" fill="white" fill-opacity="0.5"/>
<path d="M1308.03 414.31H1245.41V468.896H1308.03V414.31Z" fill="white" fill-opacity="0.5"/>
<path d="M1308.03 483.327H1245.41V537.914H1308.03V483.327Z" fill="white" fill-opacity="0.5"/>
<path d="M1308.03 552.396H1245.41V606.982H1308.03V552.396Z" fill="white" fill-opacity="0.5"/>
<path d="M1308.03 621.464H1245.41V676.051H1308.03V621.464Z" fill="white" fill-opacity="0.5"/>
<path d="M1403.34 0H1340.73V54.5864H1403.34V0Z" fill="white" fill-opacity="0.5"/>
<path d="M1403.34 69.0684H1340.73V123.655H1403.34V69.0684Z" fill="white" fill-opacity="0.5"/>
<path d="M1403.34 138.086H1340.73V192.673H1403.34V138.086Z" fill="white" fill-opacity="0.5"/>
<path d="M1403.34 207.155H1340.73V261.741H1403.34V207.155Z" fill="white" fill-opacity="0.5"/>
<path d="M1403.34 276.173H1340.73V330.759H1403.34V276.173Z" fill="white" fill-opacity="0.5"/>
<path d="M1403.34 345.241H1340.73V399.827H1403.34V345.241Z" fill="white" fill-opacity="0.5"/>
<path d="M1403.34 414.31H1340.73V468.896H1403.34V414.31Z" fill="white" fill-opacity="0.5"/>
<path d="M1403.34 483.327H1340.73V537.914H1403.34V483.327Z" fill="white" fill-opacity="0.5"/>
<path d="M1403.34 552.396H1340.73V606.982H1403.34V552.396Z" fill="white" fill-opacity="0.5"/>
<path d="M1403.34 621.464H1340.73V676.051H1403.34V621.464Z" fill="white" fill-opacity="0.5"/>
<path d="M1498.69 207.155H1436.08V261.741H1498.69V207.155Z" fill="white" fill-opacity="0.5"/>
<path d="M1498.69 276.173H1436.08V330.759H1498.69V276.173Z" fill="white" fill-opacity="0.5"/>
<path d="M1498.69 345.241H1436.08V399.827H1498.69V345.241Z" fill="white" fill-opacity="0.5"/>
<path d="M1498.69 414.31H1436.08V468.896H1498.69V414.31Z" fill="white" fill-opacity="0.5"/>
<path d="M1498.69 483.327H1436.08V537.914H1498.69V483.327Z" fill="white" fill-opacity="0.5"/>
<path d="M1498.69 552.396H1436.08V606.982H1498.69V552.396Z" fill="white" fill-opacity="0.5"/>
<path d="M1498.69 621.464H1436.08V676.051H1498.69V621.464Z" fill="white" fill-opacity="0.5"/>
<path d="M1594.03 483.327H1531.42V537.914H1594.03V483.327Z" fill="white" fill-opacity="0.5"/>
<path d="M1594.03 552.396H1531.42V606.982H1594.03V552.396Z" fill="white" fill-opacity="0.5"/>
<path d="M1594.03 621.464H1531.42V676.051H1594.03V621.464Z" fill="white" fill-opacity="0.5"/>
</g>
<defs>
<linearGradient id="paint0_linear_961_3765" x1="818.136" y1="676" x2="818.136" y2="0" gradientUnits="userSpaceOnUse">
<stop/>
<stop offset="1" stop-opacity="0"/>
</linearGradient>
<clipPath id="clip0_961_3765">
<rect width="1600" height="676" fill="white"/>
</clipPath>
</defs>
</svg>
