<?xml version="1.0" encoding="UTF-8"?>
<svg xmlns="http://www.w3.org/2000/svg" width="41" height="41" viewBox="0 0 41 41" fill="none">
  <path d="M15.8333 22.2214V18.888H19.1666V22.2214M19.1666 25.5547V22.2214H22.4999V25.5547M19.1666 18.888V15.5547H22.4999V18.888M15.8333 15.5547V12.2214H19.1666V15.5547M15.8333 28.888V25.5547H19.1666V28.888M5.83325 8.88802V32.2214C5.83325 34.0547 7.33325 35.5547 9.16659 35.5547H32.4999C34.3333 35.5547 35.8333 34.0547 35.8333 32.2214V8.88802C35.8333 7.05469 34.3333 5.55469 32.4999 5.55469H9.16659C7.33325 5.55469 5.83325 7.05469 5.83325 8.88802ZM30.8333 25.5547V28.888H27.4999V25.5547M30.8333 18.888V22.2214H27.4999V18.888M30.8333 12.2214V15.5547H27.4999V12.2214M19.1666 8.88802V12.2214H22.4999V8.88802H25.8333V12.2214H22.4999V15.5547H25.8333V18.888H22.4999V22.2214H25.8333V25.5547H22.4999V28.888H25.8333V32.2214H22.4999V28.888H19.1666V32.2214H9.16659V8.88802H19.1666Z" fill="#24B283"></path>
</svg>
