<?xml version="1.0" encoding="UTF-8"?>
<svg xmlns="http://www.w3.org/2000/svg" id="Layer_1" version="1.1" viewBox="0 0 165 46">
  <defs>
    <style>.st0,.st1{fill:#fff}.st1{fill-rule:evenodd}</style>
  </defs>
  <path class="st0" d="M157.1 35.9c-1.7 2.3-3.8 3.6-7.1 3.6-5.4 0-9.1-3.5-9.1-8.8V15.2h8.3v13.9c0 2.6 1.2 4 3.6 4s4.2-1.9 4.2-4.7V15.2h7.5v23.9h-7.2v-3.2h-.1z"></path>
  <path class="st1" d="M128.2 39.5c6.1 0 10.1-4.7 10.1-12.5s-4-12.5-10.1-12.5-5.3 1.3-6.7 3.4h-.1V6.2h-7.5v32.9h7.2v-3.3c1.5 2.4 4 3.7 7.1 3.7zm-2.1-5.9c-3.1 0-5-2.7-5-6.6s1.6-6.8 4.9-6.8 4.7 2.7 4.7 6.7-1.6 6.6-4.6 6.6zM96.7 39.4c3.6 0 5.6-1.2 7-3.2.2 1.2.5 2.4.9 2.9h7.1v-.3c-.7-.6-.7-1.8-.7-3.7V23.2c0-2.9-1-5.2-3-6.7-1.7-1.3-4.1-1.9-7.7-1.9-7.1 0-10.7 3.7-10.8 8.1h6.9c.2-2 1.6-3 4-3s3.2 1 3.2 2.5-1.6 2.1-6 2.6c-4.9.6-9 2.2-9 7.4s3.4 7.2 8.1 7.2zm2.4-4.8c-1.8 0-3.2-.7-3.2-2.6s1.2-2.5 4.1-3.2c1.5-.4 2.9-.7 3.9-1.2v2.8c0 2.5-1.9 4.2-4.7 4.2z"></path>
  <path class="st0" d="M65.5 6.2h-8.1v32.9h8.1V26.7h12.4v12.4H86V6.2h-8.1v12.4H65.5V6.2z"></path>
  <path class="st1" d="M7.1.1C3.2.1 0 3.3 0 7.2v37.9h37.9c3.9 0 7.1-3.2 7.1-7.1V.1H7.1zm0 3.4c-2 0-3.7 1.6-3.7 3.7v34.5h34.5c2 0 3.7-1.6 3.7-3.7V3.5H7.1z"></path>
  <path class="st0" d="M36.6 24.3h-6.2c0-2.1.7-4.1 1.8-5.6 1.2-1.5 2.7-2.3 4.4-2.3V8.5c-3.3 0-6.4 1.7-8.8 4.6-2.3 3-3.6 7-3.6 11.2v12.4h8.9c1.9 0 3.5-1.6 3.5-3.5v-8.9zM8.4 20.9h6.2c0 2.1-.7 4.1-1.8 5.6-1.2 1.5-2.7 2.3-4.4 2.3v7.9c3.3 0 6.4-1.7 8.8-4.6 2.3-3 3.6-7 3.6-11.2V8.5h-8.9c-1.9 0-3.5 1.6-3.5 3.5v8.9z"></path>
</svg>
