<svg width="33" height="34" viewBox="0 0 33 34" fill="none" xmlns="http://www.w3.org/2000/svg">
<g clip-path="url(#clip0_4945_23897)">
<path d="M30.5572 0.5H2.43633C1.08926 0.5 0 1.56348 0 2.87832V31.1152C0 32.4301 1.08926 33.5 2.43633 33.5H30.5572C31.9043 33.5 33 32.4301 33 31.1217V2.87832C33 1.56348 31.9043 0.5 30.5572 0.5ZM9.79043 28.6209H4.89199V12.8686H9.79043V28.6209ZM7.34121 10.7223C5.76856 10.7223 4.49883 9.45254 4.49883 7.88633C4.49883 6.32012 5.76856 5.05039 7.34121 5.05039C8.90742 5.05039 10.1771 6.32012 10.1771 7.88633C10.1771 9.44609 8.90742 10.7223 7.34121 10.7223ZM28.1209 28.6209H23.2289V20.9639C23.2289 19.1398 23.1967 16.7873 20.683 16.7873C18.1371 16.7873 17.7504 18.7789 17.7504 20.835V28.6209H12.8648V12.8686H17.557V15.0213H17.6215C18.2725 13.7838 19.8709 12.4754 22.2492 12.4754C27.2057 12.4754 28.1209 15.7367 28.1209 19.9777V28.6209V28.6209Z" fill="#003B5C"/>
</g>
<defs>
<clipPath id="clip0_4945_23897">
<rect width="33" height="33" fill="white" transform="translate(0 0.5)"/>
</clipPath>
</defs>
</svg>
