<?xml version="1.0" encoding="UTF-8"?>
<svg xmlns="http://www.w3.org/2000/svg" width="40" height="40" viewBox="0 0 40 40" fill="none">
  <g clip-path="url(#clip0_105_6842)">
    <path d="M31.6668 16.6666H28.8335C28.8335 21.6666 24.6002 25.1666 20.0002 25.1666C15.4002 25.1666 11.1668 21.6666 11.1668 16.6666H8.3335C8.3335 22.35 12.8668 27.05 18.3335 27.8666V33.3333H21.6668V27.8666C27.1335 27.05 31.6668 22.35 31.6668 16.6666ZM25.0002 40H28.3335V36.6666H25.0002M18.3335 40H21.6668V36.6666H18.3335M20.0002 21.6666C21.3262 21.6666 22.598 21.1398 23.5357 20.2022C24.4734 19.2645 25.0002 17.9927 25.0002 16.6666V6.66663C25.0002 5.34054 24.4734 4.06877 23.5357 3.13109C22.598 2.19341 21.3262 1.66663 20.0002 1.66663C18.6741 1.66663 17.4023 2.19341 16.4646 3.13109C15.5269 4.06877 15.0002 5.34054 15.0002 6.66663V16.6666C15.0002 17.9927 15.5269 19.2645 16.4646 20.2022C17.4023 21.1398 18.6741 21.6666 20.0002 21.6666ZM11.6668 40H15.0002V36.6666H11.6668V40Z" fill="#24B283"></path>
  </g>
  <defs>
    <clipPath id="clip0_105_6842">
      <rect width="40" height="40" fill="white"></rect>
    </clipPath>
  </defs>
</svg>
