<svg width="75" height="75" fill="none" xmlns="http://www.w3.org/2000/svg"><g clip-path="url(#clip0_105_6873)"><path d="M59.375 31.25h-5.313c0 9.375-7.937 15.938-16.562 15.938S20.937 40.624 20.937 31.25h-5.312c0 10.656 8.5 19.469 18.75 21V62.5h6.25V52.25c10.25-1.531 18.75-10.344 18.75-21zM46.875 75h6.25v-6.25h-6.25M34.375 75h6.25v-6.25h-6.25M37.5 40.625a9.375 9.375 0 009.375-9.375V12.5a9.375 9.375 0 10-18.75 0v18.75a9.375 9.375 0 009.375 9.375zM21.875 75h6.25v-6.25h-6.25V75z" fill="#F50057"/></g><defs><clipPath id="clip0_105_6873"><path fill="#fff" d="M0 0h75v75H0z"/></clipPath></defs></svg>