<svg xmlns="http://www.w3.org/2000/svg" viewBox="0 0 33.5 34"><g data-name="Layer_1"><path d="M10 18.2v6.5H7v-6.9c0-1.3-.9-2-1.9-2s-2 .9-2 2.1v6.8H0V13.4h2.9v1.3c.5-.8 1.6-1.6 3.1-1.6 3.3 0 4 2.7 4 5.1zM12.2 13.4h3v11.3h-3V13.4zM17.6 9.1h3v15.6h-3V9.1zM28.05 13.05c3.5 0 5.45 2.35 5.45 6.05v.6h-8c.11 3.14 4.59 3.27 5.8 1.2l2 1.5c-2.51 4.32-10.69 2.99-10.8-3.4-.06-3.4 2.25-5.95 5.55-5.95zm2.45 4.85c-.12-3.13-4.55-2.97-4.9 0h4.9zM13.7 9c1 0 1.8.7 1.8 1.7s-.8 1.7-1.8 1.7-1.7-.7-1.7-1.7.8-1.7 1.7-1.7z"/></g></svg>