<?xml version="1.0" encoding="UTF-8"?>
<svg xmlns="http://www.w3.org/2000/svg" width="40" height="41" viewBox="0 0 40 41" fill="none">
  <path d="M33.3333 10.555C34.2173 10.555 35.0652 10.9062 35.6903 11.5313C36.3154 12.1564 36.6666 13.0043 36.6666 13.8883V33.8883C36.6666 34.7724 36.3154 35.6202 35.6903 36.2454C35.0652 36.8705 34.2173 37.2217 33.3333 37.2217H6.66659C5.78253 37.2217 4.93468 36.8705 4.30956 36.2454C3.68444 35.6202 3.33325 34.7724 3.33325 33.8883V13.8883C3.33325 12.4717 4.21659 11.255 5.46659 10.7717L26.1833 2.22168L27.4499 5.27168L14.7166 10.555H33.3333ZM33.3333 13.8883H6.66659V20.555H26.6666V17.2217H29.9999V20.555H33.3333V13.8883ZM11.6666 23.8883C10.3405 23.8883 9.06873 24.4151 8.13105 25.3528C7.19337 26.2905 6.66659 27.5623 6.66659 28.8883C6.66659 30.2144 7.19337 31.4862 8.13105 32.4239C9.06873 33.3616 10.3405 33.8883 11.6666 33.8883C12.9927 33.8883 14.2644 33.3616 15.2021 32.4239C16.1398 31.4862 16.6666 30.2144 16.6666 28.8883C16.6666 27.5623 16.1398 26.2905 15.2021 25.3528C14.2644 24.4151 12.9927 23.8883 11.6666 23.8883Z" fill="#24B283"></path>
</svg>
