<svg xmlns="http://www.w3.org/2000/svg" viewBox="0 0 89.1 34"><path d="M25.56 17.81c-.99-.25-1.49-.74-1.49-1.43s.74-1.43 1.8-1.43 1.74.56 1.8 1.49h2.67c0-2.3-1.8-3.91-4.41-3.91s-4.47 1.61-4.47 3.91 1.18 3.04 3.35 3.72l1.61.43c1.18.31 1.68.74 1.68 1.61s-.74 1.49-2.05 1.49-1.99-.74-2.05-1.61h-2.67c0 2.3 1.99 3.97 4.72 3.97s4.66-1.18 4.72-3.79c0-1.92-1.18-3.23-3.66-3.97l-1.55-.5v.02zm10.36-1.03c-2.54 0-4.53 2.2-4.47 4.69 0 2.48 1.99 4.41 4.47 4.47.74 0 1.99-.43 2.54-1.18l.19-.25v1.37h2.48v-8.94h-2.48v1.18l-.19-.25c-.74-.99-2.3-1.09-2.54-1.09zm.31 6.86c-1.18 0-2.3-.81-2.3-2.23s1.24-2.23 2.3-2.23 2.23.74 2.23 2.23-1.12 2.23-2.23 2.23zm8.88-6.7h-2.48v8.88h2.48v-8.88zm4.03-4.22H46.6v13.16h2.54V12.72zm6.77 0h-5.34v13.16h2.67v-4.59h2.73c3.17 0 4.28-2.23 4.28-4.28 0-3.04-2.17-4.28-4.34-4.28zm-.13 6.18h-2.54v-3.95h2.67c1.18 0 1.68 1.18 1.68 1.92 0 1.06-.68 2.03-1.8 2.03zm8.88-2.15c-2.67 0-4.59 1.92-4.59 4.59s1.92 4.59 4.59 4.59 4.59-1.92 4.59-4.59-1.92-4.59-4.59-4.59zm0 6.77c-1.18 0-2.17-.99-2.17-2.17s.99-2.17 2.17-2.17 2.17.99 2.17 2.17-.81 2.17-1.99 2.17h-.19.01zm8-6.58h-2.48v8.94h2.48v-8.94zm4.16 1.32-.19.29V17h-2.54v8.88h2.54v-4.66c0-1.24.56-1.92 1.74-1.92s1.68.74 1.68 1.92v4.72h2.54v-5.28c0-2.42-1.06-3.72-3.17-3.72-1.06-.12-2.11.46-2.61 1.32h.01zm-32.95-2.5c.81 0 1.55-.74 1.55-1.55s-.74-1.55-1.55-1.55-1.55.74-1.55 1.55.74 1.55 1.55 1.55zm27.55 0c.81 0 1.55-.74 1.55-1.55s-.74-1.55-1.55-1.55-1.55.74-1.55 1.55.62 1.55 1.55 1.55zm17.57 1.18h-1.74v-3.48h-2.54v3.48h-1.68v2.05h1.68v6.89h2.54v-6.89h1.74v-2.05zM10.78 8.5.17 21.72h12.79L10.79 8.5h-.01zm2.86 13.28h5.28L11.6 9.49l2.05 12.29h-.01zm-12.23.62 12.48 4.41-.74-4.41H1.41zm13.04 4.22 4.22-4.22H13.7l.74 4.22h.01z" style="fill:#fff"/></svg>