<svg id="Layer_1" xmlns="http://www.w3.org/2000/svg" version="1.1" viewBox="0 0 58.6 34"><defs><style>.st0{fill:#fff}</style></defs><path class="st0" d="M8.14 15.07c1.17-1.19-.64-2.92-1.87-1.77-1.17 1.19.64 2.92 1.87 1.77zM9.43 12.02c1.11 1.14 3.09-.53 1.87-1.77-1.11-1.14-3.09.53-1.87 1.77zM9.43 22.47c-1.17 1.19.64 2.92 1.87 1.77 1.17-1.19-.64-2.92-1.87-1.77zM9.43 16.36c-1.22 1.24.76 2.91 1.87 1.77 1.22-1.24-.76-2.91-1.87-1.77zM8.15 21.19c1.17-1.19-.64-2.92-1.87-1.77-1.17 1.19.64 2.92 1.87 1.77zM57.88 22.54l-.3.2h.01c-1.29.02-2.25.14-2.27-1.59v-6.6h2.56v-1.97h-2.56V9.82h-2.56v2.76h-5.22c.06-.71-.23-2.17.39-2.66.3-.3.69-.39 1.28-.39.82.04.93.06 1.18.1l.59-1.97c-2.34-.79-5.99-.02-5.81 3.15v1.77h-2.56v1.97h2.56V24.7h2.56V14.55h5.22v7.1c-.15 2.92 3.2 3.87 5.42 2.96l-.49-2.07zM3.02 22.47c-1.27 1.15.67 2.93 1.87 1.77 1.17-1.19-.64-2.92-1.87-1.77zM3.12 16.36c-1.17 1.19.64 2.92 1.87 1.77 1.17-1.19-.64-2.92-1.87-1.77zM3.12 12.02c1.11 1.14 3.09-.53 1.87-1.77-1.11-1.14-3.09.53-1.87 1.77zM17.7 12.02c1.17-1.19-.64-2.92-1.87-1.77-1.17 1.19.64 2.92 1.87 1.77zM31.6 17.93l-.3-.1h.01c-1.23-.43-3.99-.44-4.04-2.07.03-1.5 2.6-1.76 3.65-1.28.52.35 1.13.76 1.18 1.38h2.46c-.09-2.41-2.25-3.7-4.73-3.65-5.37-.22-7.11 5.89-1.38 7.1.86.26 2.95.46 3.55 1.08 2.02 2.93-4.49 3.69-4.83.89h-2.56c.04 3.64 5.38 4.43 7.98 3.25 3.81-1.55 3.26-6.06-.99-6.6zM15.84 24.24c1.11 1.14 3.09-.53 1.87-1.77-1.11-1.14-3.09.53-1.87 1.77zM37.32 12.51h2.66v12.22h-2.66zM12.68 13.3c-1.17 1.19.64 2.92 1.87 1.77 1.27-1.15-.67-2.93-1.87-1.77zM17.7 18.13c1.17-1.19-.64-2.92-1.87-1.77-1.17 1.19.64 2.92 1.87 1.77zM12.58 19.42c-1.27 1.15.67 2.93 1.87 1.77 1.17-1.19-.64-2.92-1.87-1.77zM38.6 8.37c-2.06.03-2.06 2.93 0 2.96 2.06-.03 2.06-2.93 0-2.96zM19.73 21.45c.27-.67.69-1.58.79-2.37-2.52-.46-2.24 2.48-.79 2.37zM12.37 27c.7-.19 1.68-.4 2.37-.8-1.15-2.29-3.33-.29-2.37.8zM5.92 26.2c.69.4 1.67.61 2.37.8.96-1.09-1.22-3.09-2.37-.8zM1.05 13.04c-.27.67-.69 1.58-.79 2.37 2.52.46 2.24-2.48.79-2.37zM6.04 8.29c1.15 2.29 3.33.29 2.37-.8-.7.19-1.68.4-2.37.8zM14.86 8.29c-.69-.4-1.67-.61-2.37-.8-.96 1.09 1.22 3.09 2.37.8zM.26 19.09c.1.79.52 1.7.79 2.37 1.45.11 1.73-2.83-.79-2.37zM20.51 15.39c-.11-.79-.55-1.69-.83-2.36-1.45-.09-1.69 2.86.83 2.36z"/></svg>