<?xml version="1.0" encoding="UTF-8"?>
<svg xmlns="http://www.w3.org/2000/svg" width="41" height="41" viewBox="0 0 41 41" fill="none">
  <path d="M27.2167 30.5544L20.1667 26.3044L13.1167 30.5544L14.9833 22.5377L8.76667 17.1544L16.9667 16.4544L20.1667 8.8877L23.3667 16.4377L31.5667 17.1377L25.35 22.521L27.2167 30.5544ZM20.1667 3.8877C10.95 3.8877 3.5 11.3877 3.5 20.5544C3.5 24.9746 5.25595 29.2139 8.38155 32.3395C9.9292 33.8871 11.7665 35.1148 13.7886 35.9524C15.8107 36.7899 17.978 37.221 20.1667 37.221C24.5869 37.221 28.8262 35.4651 31.9518 32.3395C35.0774 29.2139 36.8333 24.9746 36.8333 20.5544C36.8333 18.3657 36.4022 16.1984 35.5647 14.1763C34.7271 12.1542 33.4994 10.3169 31.9518 8.76925C30.4041 7.22161 28.5668 5.99395 26.5447 5.15637C24.5226 4.31879 22.3554 3.8877 20.1667 3.8877Z" fill="#24B283"></path>
</svg>
