<svg width="135" height="35" viewBox="0 0 135 35" fill="none" xmlns="http://www.w3.org/2000/svg">
<path d="M0 28.1394L1.31088 26.0769C2.52223 27.2185 4.10649 27.874 5.7647 27.9197C7.48507 27.9197 8.38647 27.2019 8.38647 26.1573C8.38647 23.543 0.409485 25.4153 0.409485 20.2967C0.409485 18.1217 2.27078 16.2789 5.59984 16.2789C7.46984 16.2309 9.29096 16.8838 10.7104 18.111L9.50591 20.1467C8.70821 19.2681 7.26703 18.5396 5.59984 18.5396C4.09751 18.5396 3.16952 19.2574 3.16952 20.1949C3.16952 22.5305 11.1465 20.7708 11.1465 26.0555C11.1465 28.4206 9.20544 30.2098 5.65568 30.2098C3.38756 30.2313 1.36672 29.4893 0 28.1394Z" fill="#005677"/>
<path d="M22.9816 29.8965V28.1367C22.3931 28.7925 21.6754 29.3175 20.8742 29.6781C20.073 30.0388 19.2059 30.2272 18.3284 30.2313C15.4859 30.2313 14.074 28.718 14.074 26.0207V16.6084H16.9457V24.9466C16.9457 27.0117 17.9827 27.6707 19.6233 27.6707C20.2761 27.6534 20.9168 27.4887 21.498 27.1887C22.0793 26.8888 22.5863 26.4613 22.9816 25.9377V16.6084H25.8507V29.8965H22.9816Z" fill="#005677"/>
<path d="M29.6267 29.8965V16.6084H32.4958V18.5369C33.5062 17.27 35.0909 16.2789 36.7847 16.2789V19.1423C36.4972 19.0813 36.2037 19.0534 35.9099 19.0592C34.6815 19.0592 33.0701 19.8842 32.4958 20.8458V29.8965H29.6267Z" fill="#005677"/>
<path d="M53.3289 28.1394L54.6371 26.0769C55.8484 27.2185 57.4327 27.8741 59.0909 27.9198C60.8113 27.9198 61.7153 27.2019 61.7153 26.1573C61.7153 23.5431 53.7383 25.4154 53.7383 20.2967C53.7383 18.1218 55.5996 16.2789 58.9287 16.2789C60.7979 16.2311 62.6181 16.884 64.0366 18.111L62.8348 20.1467C62.0371 19.2682 60.5932 18.5396 58.926 18.5396C57.4237 18.5396 56.4984 19.2574 56.4984 20.1949C56.4984 22.5306 64.4754 20.7708 64.4754 26.0555C64.4754 28.4206 62.537 30.2099 58.9845 30.2099C56.7164 30.2313 54.6929 29.4894 53.3289 28.1394Z" fill="#005677"/>
<path d="M66.613 23.2404C66.613 19.2226 69.4263 16.2762 73.4148 16.2762C76.0099 16.2762 77.5389 17.3771 78.4668 18.644L76.5843 20.377C76.2499 19.8821 75.7959 19.481 75.2651 19.2115C74.7344 18.9421 74.1442 18.8132 73.5504 18.8369C71.1732 18.8369 69.5619 20.6503 69.5619 23.2377C69.5619 25.8251 71.1732 27.668 73.5504 27.668C74.1497 27.6801 74.7423 27.5391 75.2728 27.2581C75.8034 26.977 76.2546 26.5651 76.5843 26.0609L78.4668 27.8474C77.5389 29.0876 76.0099 30.2152 73.4148 30.2152C69.4263 30.2313 66.613 27.2581 66.613 23.2404Z" fill="#005677"/>
<path d="M81.0806 29.8965V16.6084H83.947V18.5369C84.9574 17.27 86.5421 16.2789 88.2359 16.2789V19.1423C87.9484 19.0813 87.6549 19.0534 87.3611 19.0592C86.1327 19.0592 84.5213 19.8842 83.947 20.8458V29.8965H81.0806Z" fill="#005677"/>
<path d="M90.6135 29.8964V16.6083H93.4826V29.8964H90.6135Z" fill="#005677"/>
<path d="M100.127 28.0563V34.8838H97.2605V16.6083H100.127V18.4244C100.617 17.7585 101.256 17.2178 101.992 16.8456C102.727 16.4735 103.539 16.2803 104.363 16.2816C107.777 16.2816 110.212 18.8663 110.212 23.2457C110.212 27.6251 107.779 30.2366 104.363 30.2366C102.695 30.2313 101.22 29.4598 100.127 28.0563ZM107.258 23.235C107.258 20.6475 105.783 18.8342 103.517 18.8342C102.856 18.8452 102.206 19.0098 101.618 19.315C101.03 19.6202 100.52 20.0579 100.127 20.594V25.8492C100.514 26.3953 101.022 26.8434 101.61 27.1585C102.198 27.4736 102.851 27.6471 103.517 27.6652C105.783 27.6706 107.258 25.8278 107.258 23.2403V23.235Z" fill="#005677"/>
<path d="M120.796 28.1394L122.107 26.0769C123.315 27.2161 124.895 27.8714 126.55 27.9197C128.27 27.9197 129.171 27.2019 129.171 26.1573C129.171 23.543 121.195 25.4153 121.195 20.2967C121.195 18.1217 123.056 16.2789 126.385 16.2789C128.259 16.2277 130.084 16.8808 131.506 18.111L130.302 20.1467C129.504 19.2681 128.063 18.5396 126.398 18.5396C124.893 18.5396 123.965 19.2574 123.965 20.1949C123.965 22.5306 131.942 20.7708 131.942 26.0555C131.942 28.4206 130.004 30.2099 126.454 30.2099C124.183 30.2313 122.165 29.4893 120.796 28.1394Z" fill="#005677"/>
<path d="M93.6951 13.2897C93.6951 13.6182 93.5984 13.9392 93.4173 14.2123C93.2361 14.4854 92.9787 14.6983 92.6774 14.824C92.3762 14.9497 92.0447 14.9826 91.7249 14.9185C91.4051 14.8544 91.1114 14.6962 90.8808 14.464C90.6502 14.2317 90.4932 13.9358 90.4296 13.6137C90.366 13.2915 90.3987 12.9576 90.5234 12.6542C90.6482 12.3507 90.8595 12.0914 91.1306 11.9089C91.4017 11.7264 91.7205 11.629 92.0465 11.629C92.4838 11.629 92.9031 11.804 93.2122 12.1154C93.5214 12.4269 93.6951 12.8493 93.6951 13.2897Z" fill="#005677"/>
<path d="M113.738 26.7921V19.1154H111.555V16.6083H113.738V13.2897H116.608V16.611H119.285V19.1181H116.608V26.0822C116.608 26.9903 117.044 27.6894 117.865 27.6894C118.282 27.7065 118.697 27.6287 119.08 27.4617V29.8723C118.465 30.1427 117.797 30.2735 117.126 30.2554C114.89 30.2554 113.738 29.0447 113.738 26.8162" fill="#005677"/>
<path d="M23.3299 2.30778C14.518 2.30778 6.8601 6.79161 2.96999 13.3781L2.50732 13.204C4.39028 9.25001 7.34425 5.91265 11.0286 3.57668C14.713 1.24072 18.9778 0.00128174 23.3312 0.00128174C27.6847 0.00128174 31.9494 1.24072 35.6338 3.57668C39.3182 5.91265 42.2722 9.25001 44.1552 13.204L43.6925 13.3781C39.7997 6.78626 32.1551 2.30778 23.3299 2.30778Z" fill="#005677"/>
<path d="M49.2922 26.4144C48.2725 27.3458 46.9461 27.8631 45.5696 27.8662C43.0835 27.8662 41.6077 26.1868 41.3897 24.2073H51.5524V23.4895C51.5524 19.3083 49.0396 16.2816 45.0777 16.2816C41.1716 16.2816 38.385 19.3914 38.385 23.2457C38.385 27.4564 41.3099 30.234 45.2984 30.234C47.2926 30.234 49.1566 29.5938 50.4861 28.4233C50.0527 27.7537 49.6645 27.0894 49.2922 26.4144ZM45.0378 18.6467C47.633 18.6467 48.6966 20.5753 48.779 22.1422H41.3551C41.4615 20.5431 42.6128 18.6467 45.0431 18.6467H45.0378Z" fill="#005677"/>
<path d="M133.764 16.4182C134.008 16.4182 134.247 16.4913 134.45 16.6281C134.654 16.765 134.812 16.9595 134.906 17.1871C134.999 17.4147 135.024 17.6651 134.976 17.9067C134.929 18.1483 134.811 18.3702 134.638 18.5444C134.465 18.7186 134.245 18.8372 134.005 18.8853C133.765 18.9334 133.516 18.9087 133.29 18.8144C133.064 18.7202 132.871 18.5605 132.735 18.3557C132.6 18.1509 132.527 17.9101 132.527 17.6637C132.528 17.3336 132.658 17.0172 132.89 16.7838C133.122 16.5504 133.436 16.4189 133.764 16.4182ZM133.764 18.628C133.954 18.636 134.143 18.5863 134.306 18.4854C134.468 18.3844 134.597 18.2368 134.676 18.0614C134.754 17.8861 134.779 17.6911 134.747 17.5014C134.715 17.3118 134.627 17.1363 134.495 16.9974C134.362 16.8585 134.192 16.7626 134.005 16.722C133.819 16.6814 133.624 16.698 133.447 16.7697C133.27 16.8413 133.118 16.9647 133.011 17.1241C132.904 17.2834 132.846 17.4713 132.846 17.6637C132.842 17.788 132.863 17.9119 132.907 18.028C132.951 18.1442 133.018 18.2502 133.104 18.34C133.189 18.4298 133.292 18.5016 133.405 18.551C133.518 18.6005 133.64 18.6266 133.764 18.628ZM133.288 16.9968H133.705C134.003 16.9968 134.29 17.0691 134.29 17.3825C134.296 17.4734 134.27 17.5634 134.216 17.6368C134.163 17.7103 134.085 17.7625 133.998 17.7843L134.33 18.3039H133.995L133.697 17.8003H133.62V18.3039H133.301L133.288 16.9968ZM133.604 17.5325H133.761C133.841 17.5325 133.971 17.5325 133.971 17.3905C133.971 17.2486 133.841 17.2512 133.761 17.2512H133.604V17.5325Z" fill="#005677"/>
</svg>
