<svg width="210" height="84" fill="none" xmlns="http://www.w3.org/2000/svg"><g clip-path="url(#clip0_107_741)" fill="#000"><path d="M20.028 2.143v.823h-5.69l12.267 31.88 12.504-31.88h-5.334v-.823h11.32v.823h-5.097L23.288 45.61h-1.72L5.213 2.966H.235v-.823h19.793zm48.768 0v.823h-5.452v40.233h5.452v.823H49.3V43.2h5.452V2.966H49.3v-.823h19.495zm7.346.823v-.823h8.947c1.659 0 3.299-.03 4.918-.088 1.62-.06 3.26-.087 4.918-.087 1.541 0 3.17.158 4.888.47 1.719.314 3.29.853 4.711 1.617a10.226 10.226 0 013.525 3.089c.928 1.293 1.393 2.92 1.393 4.881 0 1.569-.356 2.912-1.068 4.03a8.708 8.708 0 01-2.755 2.735 13.76 13.76 0 01-3.764 1.616 23.68 23.68 0 01-4.088.736v.294c1.935.353 3.663.706 5.186 1.06 1.52.352 2.834.882 3.941 1.588 1.106.707 1.984 1.686 2.638 2.942.651 1.257 1.056 2.942 1.215 5.059.196 2.47.356 4.45.473 5.94.118 1.491.287 2.647.504 3.47.217.823.513 1.374.889 1.647.375.275.92.412 1.629.412.79 0 1.442-.224 1.954-.676.513-.45.968-.871 1.363-1.266l.594.53c-.395.392-.781.754-1.155 1.089a5.579 5.579 0 01-1.303.853c-.494.236-1.097.42-1.806.56-.712.137-1.601.206-2.666.206-2.174 0-3.872-.344-5.096-1.03-1.225-.685-2.132-1.538-2.726-2.559a8.435 8.435 0 01-1.097-3.322 42.1 42.1 0 01-.266-3.383 109.744 109.744 0 00-.326-4.675c-.138-1.509-.464-2.852-.977-4.029-.513-1.176-1.284-2.119-2.31-2.823-1.028-.706-2.47-1.059-4.327-1.059h-3.91v21.233h5.451v.824H76.144v-.824h5.452V2.966h-5.454zM92.615 21.14c1.779 0 3.179-.236 4.207-.706s1.797-1.108 2.31-1.913c.513-.802.838-1.715.977-2.735.139-1.018.208-2.06.208-3.116 0-1.725-.118-3.206-.356-4.442-.238-1.236-.633-2.254-1.185-3.059-.554-.802-1.314-1.4-2.282-1.793-.968-.392-2.204-.59-3.703-.59-.435 0-.869.022-1.303.06-.434.04-.869.078-1.303.117v18.18h2.43v-.003zm31.882 22.059L142.155.496h1.601L162.421 43.2h5.096v.823h-19.91V43.2h5.511l-6.874-15.765h-14.221L125.446 43.2h5.274v.823h-11.199V43.2h4.978-.002zm7.821-16.588h13.63l-6.993-16.058-6.637 16.058zm58.843-24.468v.823h-5.452v40.233h9.779c1.303 0 2.617-.216 3.941-.647 1.323-.43 2.566-1.146 3.733-2.146 1.164-1 2.213-2.293 3.141-3.882.929-1.59 1.65-3.52 2.163-5.794h.769v13.292h-37.569V43.2h5.452V2.966h-5.452v-.823h19.495zM36.61 83.496L14.337 59.991v22.632h-1.689V55.939L34.923 79.27V56.29h1.689v27.206h-.003zm21.636-9.534l-3.553 8.66h-1.724l11.119-27.206 11.084 27.207h-1.724l-3.553-8.661H58.246zm5.84-14.286L58.879 72.39h10.379l-5.172-12.713zm30.541 22.947H92.94V57.86h-6.861v-1.57h15.41v1.57h-6.86v24.763zm24.944 0h-1.688V56.29h1.688v26.333zm44.966-13.167c0 7.404-6.297 13.517-13.756 13.517-7.46 0-13.757-6.113-13.757-13.517 0-7.404 6.263-13.517 13.757-13.517s13.756 6.11 13.756 13.517zm-25.827 0c0 6.496 5.455 11.944 12.068 11.944 6.614 0 12.068-5.482 12.068-11.944 0-6.462-5.489-11.944-12.068-11.944S138.71 62.96 138.71 69.456zm67.24 14.04l-22.271-23.505v22.632h-1.689V55.939l22.274 23.331V56.29h1.688v27.206h-.002z"/></g><defs><clipPath id="clip0_107_741"><path fill="#fff" transform="translate(.235 .496)" d="M0 0h209v83H0z"/></clipPath></defs></svg>