<svg width="349" height="54" fill="none" xmlns="http://www.w3.org/2000/svg"><path d="M103.336 15.646h-7.3c-.3 0-.6.2-.7.5l-6.4 23.1-6.8-23.1c-.1-.3-.4-.5-.7-.5h-7.3c-.5 0-.8.5-.7.9l10.8 30.9c.1.3.4.5.7.5h7.8c.3 0 .6-.2.7-.5l10.6-30.9c.1-.5-.2-.9-.7-.9zm24.2 6.3v-5.6c0-.4-.3-.7-.7-.7h-7c-.4 0-.7.3-.7.7v30.9c0 .4.3.7.7.7h7c.4 0 .7-.3.7-.7v-15.7c0-4.9 4.3-8.7 9.1-8.1h.1c.4.1.8-.3.8-.7v-7.7c-.5-.1-.7-.1-1-.1-3.8.1-7.1 2.6-9 7zm49.9-15.9l-7 1.6c-.3.1-.5.4-.5.7v38.8c0 .4.3.7.7.7h7c.4 0 .7-.3.7-.7v-40.4c0-.5-.3-.8-.9-.7zm32.6 9c-4.4 0-7.3 1.6-9.7 5.2v-4c0-.4-.3-.7-.7-.7h-7c-.4 0-.7.3-.7.7v30.9c0 .4.3.7.7.7h7c.4 0 .7-.3.7-.7v-18.6c0-3.8 2.6-6.3 6.8-6.3 3.6 0 5.4 2 5.4 5.8v19.2c0 .4.3.7.7.7h7c.4 0 .7-.3.7-.7v-21c0-7.2-3.9-11.2-10.9-11.2zm41.6 9.9c0-6.6-4.5-9.9-13.2-9.9-8.4 0-13 3.4-13.8 10.4 0 .4.3.8.7.8h6.7c.4 0 .6-.3.7-.6.5-2.9 2-3.8 5.8-3.8 3.2 0 4.8 1.1 4.8 3.2 0 1.1-.5 2-1.4 2.5-1.1.6-1.1.6-5.3 1.3l-3.4.6c-6.4 1.1-9.5 4.4-9.5 10.2 0 5.8 3.9 9.7 9.8 9.7 3.2 0 6.1-1.2 8.7-3.6.4-.4 1.1-.1 1.2.4.1.6.3 1 .7 1.5.1.2.3.3.6.3h8.7v-1c-1.4-1.4-1.9-2.3-1.9-3.9v-18.1h.1zm-8.2 10c0 4.8-2.4 7.6-6.6 7.6-2.8 0-4.5-1.5-4.5-3.9 0-2.5 1.3-3.7 4.8-4.4l2.9-.5c1.4-.3 2-.4 2.6-.6.5-.2 1 .2 1 .7v1.1h-.2zm36.5-19.3h-7c-.4 0-.7.3-.7.7v30.9c0 .4.3.7.7.7h7c.4 0 .7-.3.7-.7v-30.9c.1-.4-.3-.7-.7-.7zm20.2-.6c-9.9 0-15.9 6.5-15.9 17.1 0 10.7 6 17.1 16 17.1 9.9 0 16-6.5 16-16.9-.1-10.9-6-17.3-16.1-17.3zm.1 27.5c-4.5 0-7.6-4.1-7.6-10.4 0-6.2 3.1-10.4 7.6-10.4 4.6 0 7.6 4.1 7.6 10.5 0 6.1-3.1 10.3-7.6 10.3zm37.5-27.5c-4.4 0-7.3 1.6-9.7 5.2v-4c0-.4-.3-.7-.7-.7h-7c-.4 0-.7.3-.7.7v30.9c0 .4.3.7.7.7h7c.4 0 .7-.3.7-.7v-18.6c0-3.8 2.6-6.3 6.8-6.3 3.6 0 5.4 2 5.4 5.8v19.2c0 .4.3.7.7.7h7c.4 0 .7-.3.7-.7v-21c0-7.2-3.9-11.2-10.9-11.2zm-184.8 0c-8.4 0-13 3.4-13.8 10.4 0 .4.3.8.7.8h6.7c.4 0 .6-.3.7-.6.5-2.9 2-3.8 5.8-3.8 3.2 0 4.8 1.1 4.8 3.2 0 1.1-.5 2-1.4 2.5-1.1.6-1.1.6-5.3 1.3l-3.4.6c-6.4 1.1-9.5 4.4-9.5 10.2 0 5.8 3.9 9.7 9.8 9.7 3.2 0 6.1-1.2 8.7-3.6.4-.4 1.1-.1 1.2.4.1.6.3 1 .7 1.5.1.2.3.3.6.3h6.1c.4 0 .7-.3.7-.7v-22.2c.2-6.6-4.3-10-13.1-10zm5.1 19.9c0 4.8-2.4 7.6-6.6 7.6-2.8 0-4.5-1.5-4.5-3.9 0-2.5 1.3-3.7 4.8-4.4l2.9-.5c1.4-.3 2-.4 2.6-.6.5-.2 1 .2 1 .7v1.1h-.2zm109.3-13.7c.4 0 .5-.3.7-.7l1.7-4.1c.1-.5-.1-.7-.7-.7h-4.8v-9c0-.5-.4-.8-1-.7l-7 1.6c-.3.1-.4.4-.4.7v12.2c0 .4.3.7.7.7h5.7l-6 3.6c-.3.2-.5.5-.5.9v15c0 5.1 2.7 7.6 8.2 7.6 1.7 0 3-.1 4.3-.5.3-.1.5-.4.5-.7v-4.5c0-.4-.4-.8-.8-.7-.4 0-.7.1-1.1.1-2.2 0-2.8-.7-2.8-3.5v-17.3h3.3zm-153-5.6h-7c-.4 0-.7.3-.7.7v30.9c0 .4.3.7.7.7h7c.4 0 .7-.3.7-.7v-30.9c.1-.4-.3-.7-.7-.7zm.2-11h-7c-.4 0-.7.3-.7.7v6.1c0 .4.3.7.7.7h7c.4 0 .7-.3.7-.7v-6.1c0-.4-.3-.7-.7-.7zm165.6 0h-7c-.4 0-.7.3-.7.7v6.1c0 .4.3.7.7.7h7c.4 0 .7-.3.7-.7v-6.1c0-.4-.3-.7-.7-.7zm-212.8-4h-8.4l-24.8 42.7-11.6-20.2-4.9 8.6 12.2 21.2c.2.3.4.4.7.4h7.4c.3 0 .6-.2.7-.4l29.4-51c.3-.6-.1-1.3-.7-1.3z" fill="#000"/><path d="M34.136 35.446l20.2-34.8h-9.4c-.3 0-.6.2-.7.5l-10.1 17.1-9.9-17.1c-.1-.3-.4-.5-.7-.5h-22.4c-.7 0-1.1.7-.8 1.3l14.8 25.7 7.2-12.5 11.8 20.3z" fill="#000"/></svg>