<svg width="1600" height="1990" viewBox="0 0 1600 1990" fill="none" xmlns="http://www.w3.org/2000/svg">
<mask id="mask0_437_49579" style="mask-type:alpha" maskUnits="userSpaceOnUse" x="0" y="0" width="1600" height="1990">
<rect width="1600" height="1990" fill="#D9D9D9"/>
</mask>
<g mask="url(#mask0_437_49579)">
<g opacity="0.5">
<path opacity="0.65" d="M800.696 428.733C877.554 428.733 939.86 403.373 939.86 372.09C939.86 340.808 877.554 315.448 800.696 315.448C723.838 315.448 661.532 340.808 661.532 372.09C661.532 403.373 723.838 428.733 800.696 428.733Z" stroke="#9AC6DC" stroke-width="0.5" stroke-miterlimit="10"/>
<path opacity="0.65" d="M800.696 1615.26C877.554 1615.26 939.86 1589.9 939.86 1558.62C939.86 1527.34 877.554 1501.98 800.696 1501.98C723.838 1501.98 661.532 1527.34 661.532 1558.62C661.532 1589.9 723.838 1615.26 800.696 1615.26Z" stroke="#9AC6DC" stroke-width="0.5" stroke-miterlimit="10"/>
<path opacity="0.65" d="M800.696 946.723C895.757 946.723 972.82 921.363 972.82 890.08C972.82 858.798 895.757 833.438 800.696 833.438C705.634 833.438 628.571 858.798 628.571 890.08C628.571 921.363 705.634 946.723 800.696 946.723Z" stroke="#9AC6DC" stroke-width="0.5" stroke-miterlimit="10"/>
<path opacity="0.65" d="M800.696 1431.66C950.367 1431.66 1071.7 1393.19 1071.7 1345.72C1071.7 1298.26 950.367 1259.78 800.696 1259.78C651.024 1259.78 529.692 1298.26 529.692 1345.72C529.692 1393.19 651.024 1431.66 800.696 1431.66Z" stroke="#9AC6DC" stroke-width="0.5" stroke-miterlimit="10"/>
<path opacity="0.65" d="M800.695 1462.91C1070.71 1462.91 1289.6 1399.08 1289.6 1320.33C1289.6 1241.58 1070.71 1177.75 800.695 1177.75C530.679 1177.75 311.788 1241.58 311.788 1320.33C311.788 1399.08 530.679 1462.91 800.695 1462.91Z" stroke="#9AC6DC" stroke-width="1.5" stroke-miterlimit="10"/>
<path opacity="0.65" d="M800.697 1666.05C1256.79 1666.05 1626.53 1533.13 1626.53 1369.16C1626.53 1205.2 1256.79 1072.28 800.697 1072.28C344.603 1072.28 -25.1344 1205.2 -25.1344 1369.16C-25.1344 1533.13 344.603 1666.05 800.697 1666.05Z" stroke="#9AC6DC" stroke-width="1.5" stroke-miterlimit="10"/>
<path opacity="0.65" d="M800.698 1550.8C1155.66 1550.8 1443.42 1453.74 1443.42 1334C1443.42 1214.26 1155.66 1117.2 800.698 1117.2C445.733 1117.2 157.978 1214.26 157.978 1334C157.978 1453.74 445.733 1550.8 800.698 1550.8Z" stroke="#9AC6DC" stroke-width="0.5" stroke-miterlimit="10"/>
<path opacity="0.65" d="M800.697 1394.55C849.239 1394.55 888.59 1379.68 888.59 1361.34C888.59 1343.01 849.239 1328.14 800.697 1328.14C752.155 1328.14 712.804 1343.01 712.804 1361.34C712.804 1379.68 752.155 1394.55 800.697 1394.55Z" stroke="#9AC6DC" stroke-width="0.5" stroke-miterlimit="10"/>
<path opacity="0.65" d="M800.695 495.734C994.863 495.734 1152.27 434.521 1152.27 359.011C1152.27 283.501 994.863 222.288 800.695 222.288C606.526 222.288 449.122 283.501 449.122 359.011C449.122 434.521 606.526 495.734 800.695 495.734Z" stroke="#9AC6DC" stroke-width="1.5" stroke-miterlimit="10"/>
<path opacity="0.65" d="M399.683 1129.92C399.683 1055.7 579.132 997.107 800.696 997.107C1022.26 997.107 1201.71 1057.66 1201.71 1129.92C1201.71 1202.19 1022.26 1262.74 800.696 1262.74C579.132 1262.74 399.683 1202.19 399.683 1129.92Z" stroke="#9AC6DC" stroke-width="0.5" stroke-miterlimit="10"/>
<path opacity="0.65" d="M800.698 542.609C1120.27 542.609 1379.33 445.543 1379.33 325.806C1379.33 206.069 1120.27 109.002 800.698 109.002C481.129 109.002 222.067 206.069 222.067 325.806C222.067 445.543 481.129 542.609 800.698 542.609Z" stroke="#9AC6DC" stroke-width="0.5" stroke-miterlimit="10"/>
<path opacity="0.65" d="M800.698 816.055C1370.06 816.055 1831.61 639.412 1831.61 421.512C1831.61 203.612 1370.06 26.9692 800.698 26.9692C231.339 26.9692 -230.218 203.612 -230.218 421.512C-230.218 639.412 231.339 816.055 800.698 816.055Z" stroke="#9AC6DC" stroke-width="1.5" stroke-miterlimit="10"/>
<path opacity="0.65" d="M800.697 1065.47C1346.8 1065.47 1789.5 912.438 1789.5 723.663C1789.5 534.888 1346.8 381.856 800.697 381.856C254.598 381.856 -188.103 534.888 -188.103 723.663C-188.103 912.438 254.598 1065.47 800.697 1065.47Z" stroke="#9AC6DC" stroke-width="0.5" stroke-miterlimit="10"/>
<path opacity="0.65" d="M800.697 958.043C1471.19 958.043 2014.72 776.153 2014.72 551.781C2014.72 327.408 1471.19 145.519 800.697 145.519C130.209 145.519 -413.329 327.408 -413.329 551.781C-413.329 776.153 130.209 958.043 800.697 958.043Z" stroke="#9AC6DC" stroke-width="0.5" stroke-miterlimit="10"/>
<path opacity="0.65" d="M800.692 1750.03C1377.13 1750.03 1844.43 1598.75 1844.43 1412.13C1844.43 1225.52 1377.13 1074.23 800.692 1074.23C224.254 1074.23 -243.041 1225.52 -243.041 1412.13C-243.041 1598.75 224.254 1750.03 800.692 1750.03Z" stroke="#9AC6DC" stroke-width="0.7" stroke-miterlimit="10" stroke-linecap="round"/>
<path opacity="0.65" d="M800.697 651.992C1244.66 651.992 1604.55 520.822 1604.55 359.014C1604.55 197.207 1244.66 66.0369 800.697 66.0369C356.738 66.0369 -3.16113 197.207 -3.16113 359.014C-3.16113 520.822 356.738 651.992 800.697 651.992Z" stroke="#9AC6DC" stroke-width="0.7" stroke-miterlimit="10" stroke-linecap="round"/>
</g>
</g>
</svg>
